<svg xmlns="http://www.w3.org/2000/svg" viewBox="0 0 1000 1000" style="enable-background:new 0 0 1000 1000" xml:space="preserve"><style></style><path d="M831.94 462.57 722.46 300.68h61.42v-43H635.9l101.56 161.89H530.3v-30.35h158.1L580.28 222.26h156.81l-57.31-84.74h44.66v-43H650.7l-23.09-34.15h141.1v-43H541.05L642.6 179.26h-90.17l-49.96-77.15-49.96 77.15h-90.17L463.9 17.37H236.24v43h141.1l-23.09 34.15H280.5v43h44.66l-57.31 84.74h156.81L316.55 389.21h158.1v30.35H267.48l101.56-161.89H221.06v43h61.42L173 462.57h301.65v35.41H317.18v43h157.46v40.47H363.98v43h110.67l1.26 183.39s51.86-60.71 158.1-63.24C782 750 783.25 914.09 626.42 922.94c-111.3-5.06-140.39-135.33-290.9-130.27-137.86 3.79-161.89 169.48-161.89 169.48 25.43-23.35 49.34-22.32 72.09-5.06 0 0 25.3-121.42 98.65-118.89 116.36 2.53 125.21 127.74 295.95 132.8 43 0 150.51-10.12 150.51-136.59-7.81-171.76-212.32-133.04-260.54-121.49v-88.46h110.67v-43H530.3v-40.47h157.46v-43H530.3v-35.41h301.64zM400.02 346.21l102.45-158.2 102.45 158.2h-204.9z" id="Layer_2"/></svg>