<svg xmlns="http://www.w3.org/2000/svg" viewBox="0 0 988.6 335.6" style="enable-background:new 0 0 988.6 335.6" xml:space="preserve"><path d="M581 97.6c-15.8-46-62.3-53.1-82.4-54.1 0 0-1.7-.1-4.6-.1h-.2c-3 0-4.6.1-4.6.1-20.1.9-66.6 8.1-82.4 54.1-13.4 39.2 12 83.5 6.8 89.5-20.7 23.9 7.4 61.9 11.3 65 6.9 5.7 28.9-5.8 25.4.1-2.6 4.5-5.1 38.4-5.1 38.4h6.8l3.3-11.8 5.8-.1 1.1 11.9h11.9l1.1-11.3 4-.6.6 11.9h9.7l.4-12.2h7.8l.4 12.2h9.7l.6-11.9 4 .6 1.1 11.3h11.9l1.1-11.9 5.8.1 3.3 11.8h6.8s-2.4-33.9-5.1-38.4c-3.5-5.9 18.5 5.5 25.4-.1 3.9-3.1 32-41.1 11.3-65-5-6 20.4-50.3 7-89.5zm-99.9 114.2c-2.7 3-6.6 6.6-11.9 9.6-12.7 7.1-25.3 6.1-30.3 5.4-.3 0-.7-.1-.9-.3-11.1-7-15.3-18-12-24.8.5-1 2.4-4.5 8.2-6.6.3-.1.7-.1 1-.1 7 .6 15.8 2 25.4 5.1 7.8 2.4 14.5 5.4 19.9 8.2 1.3.6 1.6 2.4.6 3.5zm26.5 41.5c0 .8-1 1.1-1.5.5-1.2-1.5-2.8-3.3-5.1-4.9-2.4-1.7-4.6-2.8-6.4-3.4-1.7.6-4 1.7-6.4 3.4-2.2 1.6-3.9 3.4-5.1 4.9-.5.6-1.5.3-1.5-.5-.4-5.8-.1-17.7 8.6-26.3 1.1-1.1 2.6-2.1 4.3-3 1.7.9 3.2 1.9 4.3 3 9 8.7 9.2 20.6 8.8 26.3zm42.6-26.8c-.3.2-.6.3-.9.3-5.1.7-17.6 1.7-30.3-5.4-5.3-3-9.2-6.5-11.9-9.6-1-1.2-.7-3 .7-3.7 5.5-2.8 12.1-5.8 19.9-8.2 9.7-3 18.4-4.4 25.4-5.1.3 0 .7 0 1 .1 5.8 2.1 7.7 5.6 8.2 6.6 3.2 7-1 18-12.1 25z"/><path d="M396.5 126.7c-8.2-2-16-7.7-25.1-11.5-4.2-3.3-15.4-12-21.2-31.8-6-20.5 12.3-43 14.4-47 8.9-2.4 11.5-1.9 20.4-4.4V0H0c7.8 16.1 15.8 31.4 23.9 46.1l237.2-1c.4 2.2.9 4.5 1.4 6.9L37.2 69.4C52.5 95.3 68 118.7 83.4 140l182-56.5c1 3.5 2 7 3.2 10.6l-162.1 76.4c14.7 18.5 29 35 42.7 49.8l126.3-91.7c1.1 2.6 2.2 5.1 3.3 7.7L165.1 237.1c14.6 14.9 28.1 27.6 40.7 38.4l87.5-110.2c2.2 3.6 4.5 7.1 6.9 10.5l-78.4 112.8c21.2 16.6 39.2 27.3 54.2 34.2 13.3-39.6 28.4-86.9 41.6-125.6 3.1 2.9 4 4.4 7 6.6L286 327c25.6 9.8 41 7.7 47.7 6.4 2.1-.4 4.2-.9 6.2-1.4 5.5-37.2 9.6-78.5 15.2-115.5 2.7.3 5.2.4 7.5.4l-3.8 104.4c8.1-3.3 17.7-8.5 27-17 2.2-2 4.2-4 6-6V195.2c.2-1.5 2.8 1.1 7.9-3.1 3-2.5 6.3-13.6 6.3-19.9-4.3-12.5-7.5-14.9-8.9-32.3-.1.1-.6-8.8-.6-13.2zM964.8 47.1c8.1-14.6 16.1-30 23.9-46.1h-385v32c8.9 2.4 11.5 1.9 20.4 4.4 2.2 4 20.4 26.5 14.4 47-5.8 19.8-17 28.6-21.2 31.8-9.1 3.9-16.9 9.5-25.1 11.5 0 4.4-.5 13.3-.5 13.3-1.4 17.4-4.6 19.7-8.9 32.3 0 6.3 3.3 17.4 6.3 19.9 5.1 4.2 7.6 1.6 7.9 3.1v103.1c1.8 2 3.8 4 6 6 9.2 8.5 18.9 13.7 27 17L626 218c2.3 0 4.8-.1 7.5-.4 5.6 36.9 9.7 78.3 15.2 115.5 2 .5 4.1 1 6.2 1.4 6.7 1.2 22.1 3.3 47.7-6.4l-38.5-123.2c2.9-2.2 3.9-3.7 7-6.6 13.2 38.8 28.2 86 41.6 125.6 15-6.9 33.1-17.7 54.2-34.2l-78.4-112.8c2.4-3.4 4.7-6.9 6.9-10.5l87.5 110.2c12.6-10.8 26.1-23.5 40.7-38.4L709.8 137.3c1.1-2.5 2.2-5.1 3.3-7.7l126.3 91.7c13.7-14.8 28-31.4 42.7-49.8L720 95.1c1.1-3.6 2.2-7.1 3.2-10.6l182 56.5c15.4-21.3 31-44.7 46.2-70.6L726.2 53c.5-2.4 1-4.7 1.4-6.9l237.2 1z"/></svg>