<svg viewBox="0 0 596 927" fill="none" xmlns="http://www.w3.org/2000/svg">
<g clip-path="url(#clip0_758_2215)">
<path d="M345.6 664.6C343.7 668.3 341.8 671.5 339.9 673C339.1 671.1 338 669.4 335.9 668C332.7 684.8 324.9 695.4 314.9 703C316.4 694.4 318.3 685.6 316.9 678C313.6 684.7 309.4 688.2 304.9 689C304.2 685.4 303.6 682 301.9 681C298.2 684.8 295.8 686.9 294.9 687C293.8 682.4 292.8 677.4 291.6 674.4C290.1 673.4 288.7 673.4 287.2 674.4C286 677.3 285 682.4 283.9 687C283 686.9 280.6 684.8 276.9 681C275.2 682 274.6 685.4 273.9 689C269.4 688.2 265.2 684.7 261.9 678C260.5 685.6 262.4 694.4 263.9 703C253.9 695.4 246.1 684.8 242.9 668C240.8 669.4 239.7 671.1 238.9 673C237.1 671.5 235.2 668.4 233.2 664.6C233 664.3 232.6 664.5 232.7 664.8C249.7 726.3 243.9 737.3 246.9 763.9C250.5 760.1 254.1 757.2 257.9 755.9C258.2 757.9 258.8 759.4 259.9 759.9C262.6 754.5 265.3 750.3 267.9 747.9C270.9 755.9 273.8 765 276.9 765.9C278.4 760.8 280.6 756.6 283.9 753.9C285.8 758.6 287.7 762.2 289.4 762.8C291.1 762.2 293 758.6 294.9 753.9C298.2 756.6 300.4 760.8 301.9 765.9C305 765 307.9 755.9 310.9 747.9C313.5 750.3 316.2 754.5 318.9 759.9C320 759.4 320.6 757.9 320.9 755.9C324.7 757.2 328.3 760.1 331.9 763.9C334.9 737.3 329.1 726.2 346.1 664.8C346.3 664.5 345.8 664.3 345.6 664.6Z" fill="black"/>
<path d="M264 582C248.8 565.8 234 552.6 221 551C212.1 562.5 205 569 198 575C197.8 585.8 198.3 595.9 208 597C216.6 600.2 235.5 598.5 254 597C261.4 595.4 262.8 588.8 264 582Z" fill="black"/>
<path d="M280 631C282.6 627.7 285 624.3 287.5 622.2C287.5 622.2 288.9 620.4 289.5 620.7C290.2 620.3 291.5 622.2 291.5 622.2C293.9 624.3 296.3 627.7 299 631C302.9 632 305 633 305 628C304.1 622.7 297.7 606.6 295.6 598.9C295.4 598.1 294.3 598 293.9 598.7C293.1 600.2 292.3 602.2 291.3 604C291.3 604 290.1 607.2 289.5 606.6C288.9 607.2 287.7 604 287.7 604C286.7 602.2 285.8 600.2 285.1 598.7C284.7 598 283.6 598.1 283.4 598.9C281.3 606.6 274.9 622.8 274 628C274 633 276.1 632 280 631Z" fill="black"/>
<path d="M556 589C544.2 596 541.5 589.5 544 575C559.7 557.1 569.6 537.8 570 516C556.5 486.7 570 439 570 430C570 421 561.4 409.5 552 401C559.8 416.6 561 428 552 438C534.8 441.9 527.3 488 532.3 498.9C533 500.4 532.5 502.2 531.1 503.1C516.2 512.3 503.2 499.1 512 475C522.4 457.5 529.9 440.4 530 424C526.9 406.9 523.8 389.9 519 380C514.2 355.6 526.1 332 546 322C502.5 329.3 492 355 485 382C477.6 412.3 454 395 455 378C470 324 476.3 309.8 441 282C429.7 271.4 434.4 253.1 455 227C430.6 236.6 416 248 409 276C414 312 414.9 331.8 405 340C413.5 305.8 404.6 282.1 373 272C342 258 373 210 373 154C369.8 134.8 361 122 348 109C331.4 88.6 328.8 61.8 346 26C321.5 39.7 306 72 308 93C310 114 339 178 298 181C269 181 278.3 132.2 286 94C289.6 76 263.8 51.4 254 30C248.3 17.6 257.7 3.1 256 0C246.6 8 241.1 21.9 242 38C248.8 62.4 255.4 83.2 255 98C250.5 130 219 185 215 196C192 244 257 294 193 305C184 305 186 289 184 282C179 263 147 254 143 228C139 202 162 202 162 174C162 141 132 137 132 137C169 175 116 189 100 232C97.3 231.2 97 267 114 286C126 302 139 330 94 351C94 351 65 364 62 389C55 427 88 487 68 494C42 497 62 474 55 460C40 437 44 411 44 411C21 429 33 472 30 476C27 480 0 499 22 584C32 611 56 627 44 636C31 645 28 615 28 615C25 600 14 592.8 0 592C11 601 8 619 10 652C14.3 679.2 54.3 706.5 130 734C144.7 748.8 146.1 763 138 770C125.5 777.9 120.2 758.7 114 734C97 775 118.1 805.6 137 820C137 820 187 839 198 852C209 865 207 870 212 873C224.8 877.9 236 883 236 890C236 897 229 898.8 211 892C223.1 923.9 259 909.3 267 902C270.7 898.6 285.7 914.2 292.5 925.4C293.2 926.6 295 926.6 295.7 925.4C303 912.3 312 894 322 895C333 901 340.9 904 346 904C353.3 904 359.2 896.5 358 896C360.4 889.5 372.8 879.3 381 880C379.5 873.2 355.5 875.1 348 879C342.5 881.9 360 854 366 862C368.1 853.4 370.2 846.1 373 845C409 857 461 840 463 806C469 781 442 782 443 766C446 757 469.6 754.7 487 759C503.3 758.4 515.9 755.6 522 749C532 729 544 705 568 701C571.5 699.2 576 693 570 688C568 701 553 690 539 695C526 703 525 720 507 718C493.2 712 494.6 702.4 513 689C531.7 684.2 546.3 674.7 558 662C558 662 570 647 575 633C584 607 572 540 596 531C575.4 525.6 563.5 557.8 556 589ZM480 473C471.6 525.2 451.5 551.3 408 562C399 565.7 400.1 578.6 408 598C429.6 619.6 451 642 449 663C438.8 650.6 411.8 645.4 403 648C398 651 396 663 378 660C358.9 667.1 362.1 727.4 365 741C366.7 748.9 351.4 756.8 353 764C354.5 771 356 778 358 783C359.8 786.8 354.5 791.3 356 794C359.8 800.8 369.4 829.3 356 839C354 840.4 349.6 819 336 815C327.3 812.5 322.3 819 307 818C300 815 281 814 272 818C256.7 819 251.7 812.5 243 815C229.4 819 225 840.4 223 839C209.6 829.3 219.2 800.8 223 794C224.5 791.3 219.2 786.8 221 783C223 778 224.5 771 226 764C227.6 756.8 212.3 748.9 214 741C216.9 727.4 220.1 667.1 201 660C183 663 181 651 176 648C167.2 645.4 140.2 650.6 130 663C128 642 149.4 619.6 171 598C178.9 578.6 180 565.7 171 562C127.5 551.3 107.4 525.2 99 473C97.9 432 126.8 404.5 173 385C189.3 378.1 208 375 216 353C217 337 212.2 335.1 198 322C215.2 319.9 227.8 327.9 233 352C224 396 184 391 177 435C179 465 215 475 242 454C242.7 441 249 429.9 260 424C260.2 433.7 266 445 271 446C272 447 281 443 289 443H290C298 443 307 447 308 446C313 445 318.8 433.7 319 424C330 429.9 336.3 441 337 454C364 475 400 465 402 435C395 391 355 396 346 352C351.2 327.9 363.8 319.9 381 322C366.8 335.1 362 337 363 353C371 375 389.7 378.1 406 385C452.1 404.5 481 432 480 473Z" fill="black"/>
<path d="M358 551C345 552.6 330.2 565.8 315 582C316.2 588.8 317.6 595.4 325 597C343.5 598.5 362.4 600.2 371 597C380.7 595.9 381.2 585.8 381 575C374 569 366.9 562.5 358 551Z" fill="black"/>
</g>
<defs>
<clipPath id="clip0_758_2215">
<rect width="596" height="926.3" fill="white"/>
</clipPath>
</defs>
</svg>
