<svg xmlns="http://www.w3.org/2000/svg" viewBox="0 0 1000 1000" style="enable-background:new 0 0 1000 1000" xml:space="preserve"><path d="M232.2 366.3v74.9h131.6c-4.5-23.1-6.8-49.3-1.2-74.9H232.2zM232.2 552.6h133.1c0-13.4 3.7-26.7 13.6-38.2 3.5-4-.7-17.6-6.1-36.7H232.2v74.9zM816.5 366.3H685.1c5.6 25.6 3.3 51.8-1.2 74.9h132.6v-74.9zM816.5 477.6H675c-5.4 19.1-9.5 32.7-6 36.7 9.9 11.5 13.7 24.8 13.6 38.2h133.9v-74.9z"/><path d="M531.7 270s-2.9-.2-7.7-.2h-.2c-4.9 0-7.7.2-7.7.2-33.4 1.6-110.7 13.5-136.9 89.8-22.3 65.2 20 138.8 11.4 148.7-34.4 39.8 12.4 102.9 18.7 108.1 11.5 9.4 48.1-9.6 42.3.2-4.4 7.5-8.4 63.9-8.4 63.9h11.3l5.4-19.6 9.7-.1 1.9 19.8h19.8l1.9-18.8 6.6-.9.9 19.8h16l.7-20.3h13l.7 20.3h16l.9-19.8 6.6.9 1.9 18.8h19.8l1.9-19.8 9.7.1 5.4 19.6h11.3s-4-56.4-8.4-63.9c-5.8-9.8 30.8 9.1 42.3-.2 6.4-5.2 53.1-68.3 18.7-108.1-8.6-9.9 33.6-83.6 11.4-148.7-26.1-76.3-103.4-88.2-136.9-89.8zm-29.1 279.7c-4.5 5-10.9 11-19.7 15.9-21.1 11.9-42 10.2-50.4 9-.6-.1-1.1-.2-1.6-.6-18.5-11.7-25.5-29.9-20-41.3.8-1.7 3.9-7.5 13.6-11 .6-.2 1.1-.2 1.7-.2 11.7 1.1 26.2 3.4 42.2 8.4 13 4 24.1 9 33.1 13.7 2.3 1.2 2.8 4.2 1.1 6.1zm44.2 68.9c-.1 1.3-1.7 1.8-2.5.8-2-2.5-4.7-5.5-8.4-8.1-3.9-2.9-7.6-4.7-10.6-5.7-2.9 1.1-6.7 2.9-10.6 5.7-3.7 2.7-6.4 5.6-8.4 8.1-.8 1-2.4.5-2.5-.8-.6-9.6-.2-29.3 14.3-43.6 1.9-1.9 4.3-3.5 7.2-5 2.8 1.6 5.3 3.2 7.2 5 14.5 14.3 14.9 34.1 14.3 43.6zm49.3-51c-12 0-21.7-9.7-21.7-21.7 0-6.7 3.1-12.7 7.8-16.7 6.4-1.9 12.5-3.4 18.2-4.6 9.9 2 17.3 10.8 17.3 21.2.1 12.1-9.6 21.8-21.6 21.8z"/><path d="M271.1 249.2c12.3 1 47 34.3 62.8 52.9 12.5 14.7 42.8 47.1 42.8 47.1l20-34c-9.2-15.5-53.2-39.6-74.9-75.5-.8-1.3-.4-7.3-2.2-14.8-.3-1.2-.8-3.3-1.5-5.9 6.1-5.4 9.8-5.1 12.2-13.9 6.1-21.8-4.7-43.9-24-49.3-19.3-5.4-39.9 8-46 29.8-2.2 7.9-1 8.1.8 15.2-10 5.7-20.8 10.9-32 10.7-20.8-.2-4.9 10.5 42 37.7zM783.3 682c2.1-10.7-5.2-21.1-16.2-23.2-7.5-1.4-15.4 5.1-19.3 6.6-4.5-1.1-37.5-27.9-83.8-78.8l-18.7 29.7c48.1 43.7 46.2 31.9 77.7 66.6 1.2 2.8 4.4 5.8 3.2 8.9-1.2 3.1-6.1 7.2-7 12-2.3 11.8 5.7 23.2 17.8 25.5 12.1 2.3 29.3-2.3 31.6-14 1-5.2-.9-10.4-3.4-14.7 3.7 2.8 16.7-.8 18.1-18.6zM726.7 239.7c-21.7 35.9-65.7 60-74.9 75.5l20 34s30.3-32.4 42.8-47.1c15.8-18.6 50.6-51.9 62.8-52.9 46.9-27.2 62.8-38 41.9-37.7-11.2.2-22-5.1-32-10.7 1.8-7.1 2.9-7.3.8-15.2-6.1-21.8-26.7-35.2-46-29.8-19.3 5.4-30.1 27.4-24 49.3 2.4 8.8 6.1 8.5 12.2 13.9-.7 2.6-1.3 4.7-1.5 5.9-1.7 7.5-1.3 13.5-2.1 14.8zM401.8 616.3l-18.7-29.7c-46.3 50.9-79.3 77.7-83.8 78.8-3.8-1.5-11.8-8-19.3-6.6-11 2.1-18.2 12.5-16.2 23.2 1.4 17.8 14.4 21.3 18 18.6-2.4 4.3-4.4 9.5-3.4 14.7 2.3 11.8 19.5 16.3 31.6 14 12.1-2.3 20.1-13.7 17.8-25.5-.9-4.9-5.8-8.9-7-12-1.2-3.1 2-6.1 3.2-8.9 31.6-34.7 29.7-22.9 77.8-66.6z"/><path d="M860.3 69v.2h-672V69h-21.7v86.7h15.5c.1-14 1.1-26.7 6.2-32.4 5.5-.7 122.3-37.3 174.8 38.7 21.2 29.7 23.2 61.5 23.2 75.9l.4 59.1c3 2.6 5.8 5 8.1 7.3 37.4-40.3 92.7-48.2 120.4-49.5 0 0 3-.2 8.4-.2h.2c5.3 0 8.4.2 8.4.2 27.8 1.3 83.5 9.2 120.9 49.9 2.4-2.4 5.3-5 8.6-7.8l.4-59.1c0-14.4 2-46.1 23.2-75.9 52.5-76 169.3-39.4 174.8-38.7 5.1 5.7 6 18.3 6.2 32.4H882V69h-21.7zM232.2 663.9h31.7c2.7-5.6 7.9-10 14.6-11.2 7.5-1.4 15.4 5.1 19.3 6.6 4.2-1 33.6-24.7 75.5-69.8-.1-.2-.1-.3-.2-.5H232.2v74.9zM816.5 663.9V589H674.9c42.1 45.4 71.8 69.3 76 70.3 3.8-1.5 11.8-8 19.3-6.6 6.7 1.3 12 5.6 14.6 11.2h31.7zM860.3 861.6v.2c-83.6 6.2-141.1-13.5-170.2-48-30.2-35.8-27.9-88.3-27.9-88.3l-2.6-61.6h34.9c-8.8-6.6-20.4-15.8-38.6-32.3 0 0-5.8-1-7.4.3-12.5 10.1-49.2-10.5-42.9.2 4.7 8.1 9.1 55.5 9.1 55.5H433s4.4-47.4 9.1-55.5c6.3-10.7-30.4 10-42.9-.2-1.5-1.3-8.2-.3-8.2-.3-18.2 16.5-29.8 25.7-38.6 32.3H389l-2.6 61.6s2.3 52.5-27.9 88.3c-29.1 34.5-86.6 54.2-170.2 48v-.2c-5.1-5.7-6-18.3-6.2-32.4h-15.5V916H882v-86.7h-15.5c-.1 14-1.1 26.6-6.2 32.3z"/><circle cx="596" cy="546" r="15"/></svg>