<svg xmlns="http://www.w3.org/2000/svg" viewBox="0 0 1000 1000" style="enable-background:new 0 0 1000 1000" xml:space="preserve"><path d="M757 369v427H241.6V369h-25v447h566V369zM530.1 828h-57.8v64.3c-.3 13.5 4.8 45.2 10.9 67.1 5.5 19.2 11.3 23 17.6 32.8v1.6c.2-.2.3-.6.6-.8.1.2.2.3.3.6v-1c6.5-9.9 12.3-13.6 17.6-32.8 6.1-21.8 11.3-53.6 10.9-67.1l-.1-64.7z"/><path d="M472.1 441h57l-.4-144.3c34.2.4 68.5 1.5 102.7 3.3v-35c-39.2 6.3-78.3 9.8-117.5 10.4-.3-61.1.1-220.1 2.3-237l8.9.1c1.3 0 2.6-1.1 2.6-2.5V24.5c0-1.3-1-2.3-2.2-2.5-2.8-.2-5.6-.4-8.4-.7-.1-1.3-1-7-6.1-11.3-3.3-2.8-6.9-3.5-8.9-3.7V6c-1.6.1-5.8.6-9.7 3.8-5.1 4.1-6 9.9-6.1 11.3-2.8.2-5.6.4-8.4.7-1.2.1-2.2 1.2-2.2 2.5v11.3c0 1.3 1.1 2.5 2.6 2.5l8.9-.1c2.3 17 2.7 176.2 2.4 237.4-39.6-.6-79.1-4-118.7-10.4v35c33.7-1.8 67.4-2.9 101.1-3.3l.1 144.3z"/><path d="M492.1 449h-30v-97.1c-74.1 4.6-140.1 2.3-203-2.9v430c77.6 3.4 155.3 5.2 233 5.3V449zM537.1 449h-30v335.3c77.6-.1 155.3-1.9 233-5.3V349c-58.1 7.8-127.7 7.3-203 2.6V449z"/></svg>