<svg xmlns="http://www.w3.org/2000/svg" viewBox="0 0 485.1 671.4" style="enable-background:new 0 0 485.1 671.4" xml:space="preserve"><path d="M482 563.6c-36.1-55.2-72.5-110.1-108.4-165.3-4.7-7.2-9.8-9.7-18.1-9.7-18.8.1-37.7.2-56.5.2H186c-18.8 0-37.7 0-56.5-.1-6.8 0-11.9 1.2-16.2 7.6C76.8 451.5 39.9 506.5 3.4 561.8c-2.3 3.5-4.4 9.6-2.8 12.3 1.7 2.9 7.9 4.2 12.1 4.2 42.4.3 84.8.1 127.2.3 4.3 0 9.3-.1 12.7 2 21.9 13.7 44.9 26.3 60.3 48 8.8 12.3 16.7 25.2 25.1 37.8 4.5 6.7 10.1 6.8 12.8 0 15.1-38.4 43.9-63.5 79-82.5 6.2-3.3 13-5.1 20-5.1 41.4-.4 82.9-.1 124.3-.4 2.8 0 5.6-1 8.4-2 1.9-.7 3-2.7 2.5-4.7-.7-2.8-1.5-5.7-3-8.1zM366.7 229.5c-8.9-1.1-15.2-5.8-20-13.5-11.2-18.1-11.9-18.3-25.2-.7-11.8 15.5-26.3 24.3-45.9 21.2-19.5-3.1-38.8-7.2-58-11.6-8.2-1.9-12.9-.4-14.6 8.4-1 5.6-3.2 11-4.2 16.6-5.6 31.1-25.6 45.8-55.6 48.9-8.3.9-16.8.9-25.1.6-9.4-.4-18.7-2-28.1-2.5-8.8-.4-12 4.5-7.9 11.9 10.7 19.5 21.5 38.9 32.8 58 1.9 3.2 6.5 5.8 10.1 5.8 38.3.4 76.7.3 115 .3v-.3h114c5.1 0 9.2.1 11.3-6.9 11.2-38 23.1-75.8 34.8-113.7 6-19.3 6-19.2-14.4-20.2-6.3-.3-12.7-1.5-19-2.3z"/><path d="M43.9 207.5c4.9 17 11 33.8 17.4 50.3 6 15.4 18.4 23.9 34.3 26.3 10.6 1.6 21.4 2.6 32.1 2.1 35.1-1.9 47.5-11.7 58.5-45 3.4-10.5 6.3-21.1 9.6-32.3 3.8.9 6.9 1.8 10.2 2.3 23.8 3.8 47.5 7.9 71.4 11 11 1.4 21.1-3.2 27.3-12.3 7.1-10.4 12.9-21.8 18.4-33.2.9-1.8-1.7-6.9-4-8.3-6.6-3.9-13.7-6.9-20.8-9.9-43.4-18.6-86.7-37.3-130.2-55.5-3.3-1.4-9.3-.4-12.1 1.9-36 29.3-71.7 58.9-107.1 88.9-3.4 2.8-6.1 9.8-5 13.7zM345.8 167.3c0 8.1-.3 16.1.1 24.2.8 16.9 15.6 27 38.8 25.3 5.6-.4 13.5-3.8 15.8-8.2 14.3-27.9 29.4-55.6 40.6-84.8 9.2-24.2-2.1-51.8-26-61.7-22.8-9.4-41.1-3-50.3 18.5-11.9 27.5-20 56.1-19 86.7zM62.1 143.6c3.6 8.6 7.7 9.6 15.5 3.5 19.8-15.6 39.4-31.4 58.8-47.5 2.5-2.1 5.4-6.1 5.1-9-1.8-24.3-7-47.8-17.5-69.9C119.3 10.5 110.8 5.2 99.5 8c-13.5 3.4-27 7.4-39.9 12.8-15.3 6.3-21 19-19.1 32.1 2.3 33.6 9.9 62.7 21.6 90.7zM263.3 125.3c18.4 8.1 36.7 16.4 54.9 24.7.3.1.5.2.8.3.2.1.4.2.6.2.4.1.7.2 1 .3.1 0 .3.1.4.1.5.1.9.2 1.3.3h.3c.3.1.6.1 1 .1h1.1c.2 0 .3 0 .4-.1.2 0 .4-.1.6-.1.1 0 .3-.1.4-.1.2-.1.4-.1.6-.2.1-.1.3-.1.4-.2.2-.1.3-.2.5-.3.1-.1.3-.2.4-.2.2-.1.3-.2.5-.3.1-.1.2-.2.4-.3l.4-.4c.1-.1.2-.2.3-.4.1-.2.3-.3.4-.5.1-.1.2-.3.3-.4.1-.2.2-.4.4-.6.1-.2.2-.3.3-.5.1-.2.2-.5.3-.7.1-.2.1-.3.2-.5l.3-.9c.1-.1.1-.3.2-.4.2-.5.3-.9.5-1.4 3.8-13.6 8.8-26.9 11.5-40.7 3.3-16.1 5.3-32.4 6.8-48.8 1-11.7-5.2-19.6-16.3-23.8-15.1-5.8-30.7-7.5-46.5-4.8-15.9 2.7-25.4 11.8-28 27.6-2 12.2-2.8 24.7-4.5 39.8V95c0 2.5.1 5.3.1 8.4v1.4c0 1.2 0 2.5-.1 3.8v.6c0 .8-.1 1.6-.1 2.4-.7 6.9 1.6 11 7.9 13.7zM171.5 87c19.2 8.8 38.8 16.9 58.1 25.4 7.5 3.3 10.6.4 11.7-6.8 3.8-24 5.3-48 .3-72.1C236.3 7.6 227.6 0 201.2 0c-33.8 0-40.8 7.1-40.7 46 .7 7.1 1.5 19.6 3.6 31.8.5 3.5 4.1 7.7 7.4 9.2z"/></svg>