<?xml version="1.0" encoding="UTF-8" standalone="no"?>
<!DOCTYPE svg PUBLIC "-//W3C//DTD SVG 1.1//EN" "http://www.w3.org/Graphics/SVG/1.1/DTD/svg11.dtd">
<svg width="100%" height="100%" viewBox="0 0 400 394" version="1.1" xmlns="http://www.w3.org/2000/svg" xmlns:xlink="http://www.w3.org/1999/xlink" xml:space="preserve" xmlns:serif="http://www.serif.com/" style="fill-rule:evenodd;clip-rule:evenodd;stroke-linejoin:round;stroke-miterlimit:2;">
    <g transform="matrix(1,0,0,1,-362.628,-392.07)">
        <g transform="matrix(2.65021,0,0,2.65021,-3437.22,-97.7289)">
            <g transform="matrix(0.803581,0,0,0.803581,206.918,-844.248)">
                <path d="M1597.67,1465.22C1589.78,1465.22 1587.94,1458.98 1587.94,1453.15C1587.94,1447.33 1584.45,1435.79 1570.58,1435.79C1556.71,1435.79 1554.29,1443.99 1542.51,1443.99C1530.73,1443.99 1520.44,1413.98 1531.46,1400.04C1533.98,1396.84 1537.54,1395.49 1541.68,1395.27C1550,1394.83 1552.55,1410.52 1574.47,1414.05C1595.17,1417.39 1612.46,1397.03 1612.46,1376.06C1612.46,1355.09 1594.79,1335.34 1574.47,1338.06C1557.18,1340.38 1555.93,1348.8 1539.76,1360.58C1539.66,1360.66 1539.54,1360.71 1539.43,1360.78C1530.73,1366.06 1530.95,1354.61 1530.87,1354.1C1530.79,1353.6 1528.32,1333.92 1550.42,1311.04C1572.4,1288.28 1597.21,1280.6 1620.61,1280.6C1644.01,1280.6 1668.83,1288.28 1690.81,1311.04C1712.91,1333.92 1710.42,1353.6 1710.36,1354.1C1709.93,1357.35 1707.51,1358.78 1700.7,1354.56C1690.57,1348.3 1666.73,1350.92 1653.47,1359.08C1643.91,1364.95 1638.19,1376.75 1638.19,1382.36C1638.19,1395.54 1648.55,1398.46 1653.46,1399.12C1666.86,1400.93 1698.75,1386.09 1709.77,1400.04C1720.78,1413.98 1710.49,1443.99 1698.71,1443.99C1686.93,1443.99 1684.51,1435.79 1670.64,1435.79C1656.78,1435.79 1653.28,1447.33 1653.28,1453.15C1653.28,1458.98 1653.49,1465.17 1645.6,1465.22C1645.03,1465.22 1644.21,1465.23 1643.18,1465.23C1635.38,1464.86 1638.31,1452.96 1632.24,1452.96C1626.17,1452.96 1628.09,1464.86 1620.95,1465.23L1620.23,1465.23C1612.43,1464.86 1615.36,1452.96 1609.3,1452.96C1603.14,1452.96 1605.21,1465.22 1597.67,1465.22ZM1615.82,1413.5L1609.9,1425.32C1609.43,1426.27 1609.57,1427.4 1610.25,1428.2C1610.94,1429.01 1612.03,1429.32 1613.04,1429.01L1619.52,1426.98C1620.23,1426.76 1620.99,1426.76 1621.7,1426.98L1628.18,1429.01C1629.19,1429.32 1630.29,1429.01 1630.97,1428.2C1631.65,1427.4 1631.79,1426.27 1631.32,1425.32L1625.41,1413.5C1624.5,1411.68 1622.64,1410.54 1620.61,1410.54C1618.58,1410.54 1616.73,1411.68 1615.82,1413.5Z" style="fill:url(#_Linear1);"/>
            </g>
            <g transform="matrix(1.9585,0,0,1.9585,-1614.84,-2433.48)">
                <ellipse cx="1577.57" cy="1376.06" rx="8.549" ry="9.489" style="fill:rgb(218,39,77);"/>
            </g>
        </g>
    </g>
    <defs>
        <linearGradient id="_Linear1" x1="0" y1="0" x2="1" y2="0" gradientUnits="userSpaceOnUse" gradientTransform="matrix(1.13055e-14,184.633,-184.633,1.13055e-14,1691.11,1280.6)"><stop offset="0" style="stop-color:rgb(220,228,226);stop-opacity:1"/><stop offset="0.52" style="stop-color:rgb(207,221,222);stop-opacity:1"/><stop offset="1" style="stop-color:rgb(165,198,207);stop-opacity:1"/></linearGradient>
    </defs>
</svg>
