<svg xmlns="http://www.w3.org/2000/svg" viewBox="0 0 1000 1000" style="enable-background:new 0 0 1000 1000" xml:space="preserve"><path d="M244.8 481.2c9.7-39.3 16.2-77 8.3-107.6l-77.8-6.6c6-58.7 38-133.4 76.1-211.8C165.8 213.4 87.7 271.8 38 330.6c17.7 63.7 42.4 128.4 87.7 188.6 73.1 24.2 147.6 39.4 223.4 46.3-44.4-27.9-81.6-56-104.3-84.3zM759.5 148.6c35.3 76.3 66.3 148.6 69.5 195.3-28.4 14.7-65.7 23.7-107.6 29.8 18.3 45.1 28.5 101.1 34.7 162.2l145.6-44.7c29.8-41.4 53.3-82.8 61.2-124.1-41.8-65.7-117.2-140.6-203.4-218.5z"/><path d="M618.8 395.2c-18.2-3.3-182-114.2-182-114.2-57 28.2-110 61.3-158.9 99.3 3.5 35.8.4 64.1-8.3 86 23.2 39.7 107.6 89.4 120.8 97.6l-9.9 283 61.2-69.5 28.1 125.8 56.3-155.5 33.1 124.1 23.2-107.6 38.1 76.1 5-268.1c13.5-7.6 40 .4 67.8 9.9l43-38.1c-6.6-64.9-16.6-125-34.7-173.7 0 .1-64.6 28.2-82.8 24.9zM377.2 512.7l-6.6-64.5c36.3 11.7 86.8 11 134 5 0 0 39.7 46.3 39.7 62.9 0 6.6-48 43-48 43-52.1-29.5-94.4-47.9-119.1-46.4zm182 102.6c-6.7-9.6-21.2-12.4-53 0 5.3-24.2 12.3-45.8 26.5-56.3h26.5c-8.6 16-4.6 36 0 56.3zm49.7-49.7-49.6-33.1 13.2-16.5 102.6-9.9c-13.4 16.5-38.8 43-66.2 59.5z"/></svg>