<svg xmlns="http://www.w3.org/2000/svg" viewBox="0 0 960.5 656.6" style="enable-background:new 0 0 960.5 656.6" xml:space="preserve"><path d="M123.6 225.4c55 8.1 94.4 4.3 139.7-1.3 35.8-4.4 77.3-5.3 85.7 9.7 5.2 9.3 10.8 13.2 9.7 24.7-.9 9.7 1 13.3-1.7 20.3-2.2 5.9-3 1.5-4.7 7.7-1.9 7.1-2.5 9.1 4.3 21.7 8 14.7 21.8 31.5 28.9 37.9 1.6 1.4 4-.2 3.3-2.2-4.8-13.9-17.4-51.9-9.2-86.1 4.5-18.5 21.7-20.7 24.7-43.7 3-22.8-64-23.7-76.3-23.7s-82.7 10.3-141.7 11.6c-59 1.3-92-3.3-182.3-23.3-13.6-3 11.1 33.3 29 36.3 21.9 3.7 54.3 5 90.6 10.4z"/><path d="M244.3 260.1c11.3-1.7 22.8-3.7 34.5-6 19.4-3.7 38-7.8 55.6-12.2 1.2-.3 2-1.6 1.7-2.8-.5-1.8-1.5-4-3.2-6-4.3-5-11.6-7-19-5.3-11.1 1.2-22.6 2.3-34.3 3.2-26.3 1.9-51.3 2.7-75 2.5.6 3.7 2.2 9.9 6.9 15.5 11.6 13.8 31.2 11.3 32.8 11.1zM250.9 295.4c11.6-3.3 23.5-6.8 35.6-10.7 22.6-7.3 44-15 64.1-22.9.4-.9 1.9-4.7.3-9.1-1.3-3.8-4.1-5.7-5-6.3-15.5 4.3-32.4 8.3-50.7 11.7-25.1 4.6-51 7.1-72 8.3-.8 2.7.9 8.1 3 13.9 3.5 8.9 13.3 14.9 24.7 15.1zM270.4 323.9c6.9-1.4 10.6-2.5 18.4-5 23.3-7.6 39.5-19 52.8-28.8 1-2.9 4.2-7.5 3-13.1-.3-1.3-.6-2.5-1-3.6-18.6 8.2-39.2 16.2-62 23.3-11.5 3.6-22.6 6.7-33.3 9.3-.1 1.1-.7 7.6 4 13 5.5 6.4 17.3 5 18.1 4.9zM278.8 355.7c4 1.9 9.9.7 12.1.4 6.4-3.4 11-6.2 17.7-10.3 15.5-9.5 29.1-19.4 41-29 .3-.9 1.5-4.9-.7-9.3-2-4-5.4-5.6-6.3-6-11 6.9-23.8 14-38.3 20.7-12.7 5.8-26.7 9.4-37.7 13-.4 8.6 5.6 17.3 12.2 20.5zM308.4 383.9c5 1.1 9.3.4 12-.3 8.7-7.2 18-15.4 27.5-25.8 6.7-7.3 10.6-14.5 15.7-21.3-.4-1.9.2-8.5-5.7-12.3-1.5-1-3-1.6-4.3-2-6.9 7-15.2 14.5-25 22-12.9 9.8-25.3 17.1-36.2 22.6-1.6.8-2.1 2.8-1.2 4.3 2.5 3.9 8 10.7 17.2 12.8zM327.6 392.3c2.9 1.4 7.5 3.1 10.7 3.8 4.4.9 9.2 2.3 10.3 1.8 2.4-1.6 5.2-7.5 7.7-9.5 14.1-11.6 19.8-24.6 23.7-35.1-.6-1.3-1.7-3.1-3.3-4.9-3.1-3.2-6.5-4.4-8.3-4.9-6.4 10.4-13.2 18.1-23.4 29.6-4 4.5-12.6 11.2-17.8 15.7-1.2 1-1 2.8.4 3.5zM368.6 407.7c5 .3 8.4-2.8 9-3.3.8-6.4 2.6-14.7 6.7-23.7 2.1-4.7 4.4-8.7 6.7-12 0-.3.4-3.6-2-5.7-1.2-1-2.6-1.3-3.2-1.3-2.1 3.3-3.2 7.6-5.4 11-6.8 10.3-14.7 19-21.7 28 1.8 4 5.6 6.7 9.9 7zM70.4 258.7c34.8-1 49.8-3.2 92.2-10.2 7.3-1.2 18.5-1.5 32.2-2 1.5-.1 2.6-1.3 2.5-2.8-.2-1.5-.7-3.3-2.2-4.9-2.4-2.7-5.6-3-6.2-3-47.4-3.9-94.9-7.8-142.3-11.7-4.3-.1-12.7.5-21.1 5.7-2.3 1.5-4.3 3-5.9 4.6-.9.8-1 2.2-.4 3.2 1.8 3 4.3 6.5 7.6 10 5.3 5.5 10.7 8.9 14.7 10.9 6.3.2 16.4.6 28.9.2zM169.7 271.2c13.1-4.1 25.6-8.3 37.8-12.8 0-.7-.1-2.1-1-3.5-1.4-2.3-3.7-2.9-4.3-3-38.5 7.7-81.3 12.8-127.7 13.2-8.7.1-17.3 0-25.8-.2-2 1.2-8.1 5.2-8.7 11.2-.9 8.2 8.2 18.5 23.5 20.5 33-5.5 68.6-13.7 106.2-25.4zM215.4 282c.6-.7 3.2-4 2.8-8.8-.1-1.3-.4-2.4-.8-3.3-.8-1.9-2.9-2.7-4.8-2.1-21.6 6.6-34.6 12.9-63.9 19.9-28.4 6.8-54.6 12.1-78.2 15.2-.8.6-12.3 6.2-11.5 15.2.9 9.6 15.3 20.7 31.3 18.2 34.3-14.6 68.7-29.5 103.2-44.8 7.3-3 14.6-6.3 21.9-9.5zM217.9 311.5c3.8-2.4 7-4.6 9.8-6.5 2.5-1.7 3.2-5.2 1.5-7.7-.8-1.2-1.8-2.4-3-3.6-2.1-2-4.3-3.3-6.1-4.1-1.8-.8-3.9-.6-5.5.6-10.8 7.7-20.2 10-26.9 13.3-27 13.4-41.8 15-73.4 31.2-8.1 4.1-14.7 7.9-19.4 10.7-1.4.9-2.4 2.3-2.7 4-.5 3.2.3 5.2.6 6 2.5 5.8 11.3 9.1 21.3 6.6.4-.1.7-.3 1.1-.4 25.2-9.2 36.4-16.3 49.5-22 14-6.2 34-15.9 53.2-28.1zM230.9 342.2c6.9-3 15.5-6.1 17.2-13.1 1-4.3-.3-10.5-4.5-14.9-2-2-4.1-3.1-5.5-3.8-2.5 1.1-6.6 2.9-11.5 5.2-29.1 13.8-40.5 22.9-65.5 35.2-6 2.9-15 7.2-26.5 11.8-2.5 2.5-5.6 6.2-8.2 11.2-3.3 6.2-4.7 11.9-5.2 15.8 2.5 1.5 6.3 3.4 11.2 4.5 7.4 1.6 13.6.6 17-.2 26.9-15.9 27.1-16.1 27.1-16.1 47.6-28.5 37.1-28 54.4-35.6zM240.9 378.5c9.2-8.3 16.6-13.5 22.7-17.7 1.2-.8 1.7-2.3 1.2-3.6-.9-2.7-1.2-6.7-2.9-9.9-1.7-3.1-3.5-5.8-5.2-7.9-1.1-1.4-3.1-1.6-4.4-.5-3.5 2.9-8.3 6.7-14.1 10.9-23.4 17.3-36 22.5-57.8 37.8-6.3 4.4-15.2 11-25.7 19.8-1.2 1-1.5 2.8-.6 4.1 2.1 3.2 5.7 7.4 11.3 10.4 8.9 4.7 17.8 3.3 21.2 2.8 20.4-3.6 27.5-22 54.3-46.2zM282.2 375.2c.8-2.9.1-5.9-2-8-2.9-3-6.9-2.3-7.2-2.2-3.2 3.6-8.5 9.2-15.5 15.5-15.2 13.7-24.2 17.8-38.5 29.8-5.3 4.4-13.6 10.3-22.1 19.5-1.3 1.5-1.3 3.7.1 5.2 1.9 2 4.7 4.4 8 5.8 5.9 2.6 11.3 1.9 13.3 1.5 6.9-4.6 14.3-10 21.7-16.5 19.7-17.3 33.2-35.6 42.2-50.6zM298.4 405c2.3-2.9 4.9-6 6.8-8.1.9-1 .6-2.5-.5-3.2-1.5-.8-3.3-1.6-5.3-2.3-4.4-1.5-8.3-1.8-11-1.8-10.5 8-21.7 17.3-33 28.2-6.8 6.6-13.1 13.2-18.8 19.5 1.8 2.3 6.1 7 13.2 9.8 5.3 2 10 2.1 12.8 2 6.4-4.5 10.9-9 13.6-12.1 9.5-10.3 6.3-11.6 22.2-32zM327.2 401.6c-5.1-2.8-9.9-2.6-12.1-2.4-5.9 7.6-11.8 15.7-17.8 24.5-8.3 12.3-15.5 24.2-21.8 35.5 2.5.9 5.6 1.8 9.3 2.1 7.6.8 13.8-.8 17.5-2.1 2.5-3.3 5-6.8 7.5-10.5 9.9-14.7 17.4-29.2 23-42.5-1-1.3-2.9-3.1-5.6-4.6zM336.7 469.7c3.4-5.2 6.8-8.4 10.2-14.5 6.6-11.7 12.2-23.1 16.9-33.8.5-1.2.3-2.6-.6-3.6-1.7-2-4.4-4.5-8.1-6.5-3.2-1.7-6.2-2.6-8.6-3.1-1.6-.3-3.3.6-3.9 2.2-2.6 6.9-5.1 12.4-7.1 16.1-7.3 14.3-13.2 20.3-19.8 35.5-1.4 3.3-2.5 6.2-3.3 8.5-.6 1.7.2 3.5 1.8 4.2 8.2 3.6 16.8-1.7 21-3.9.7-.2 1.2-.6 1.5-1.1zM378.2 419.5c-1.5 1.9-3.7 4.7-6.2 8.2-3.3 4.7-13.2 19.1-25 51-2.8 7.5-8.1 19.2-11.4 30.9-.6 2.2 1.3 4.3 3.5 3.8 2.6-.6 5.4-.6 7.2-2.2 38.5-35.3 45.4-63.1 46.8-71.2-.1-2.2-.8-8-5.2-13.5-3.6-4.2-7.7-6.2-9.7-7zM956.5 184.5c-90.3 20-123.3 24.6-182.3 23.3-59-1.3-129.3-11.6-141.7-11.6-12.3 0-79.3.9-76.3 23.7 3 23 20.2 25.2 24.7 43.7 8.2 34.2-4.4 72.2-9.2 86.1-.7 2 1.7 3.6 3.3 2.2 7.1-6.5 20.9-23.2 28.9-37.9 6.8-12.6 5-14.3 4.3-21.7-.7-7.3-2.8-4.8-4.7-7.7-4.1-6.3-.7-10.6-1.7-20.3-1.1-11.4 4.5-15.4 9.7-24.7 8.3-15 49.9-14.1 85.7-9.7 45.3 5.6 84.7 9.5 139.7 1.3 36.3-5.4 68.7-6.7 90.7-10.3 17.9-3.1 42.6-39.4 28.9-36.4z"/><path d="M681.7 259.9c11.8 2.2 23.3 4.2 34.5 6 1.6.2 21.2 2.7 32.8-11.2 4.7-5.7 6.3-11.8 6.9-15.5-23.7.2-48.7-.6-75-2.5-11.7-.9-23.2-1.9-34.3-3.2-7.4-1.6-14.7.3-19 5.3-1.7 2-2.7 4.2-3.2 6-.3 1.2.4 2.5 1.7 2.8 17.6 4.5 36.2 8.6 55.6 12.3zM609.5 258.5c-1.5 4.4 0 8.2.3 9.1 20.1 7.9 41.5 15.7 64.1 22.9 12.1 3.9 24 7.4 35.6 10.7 11.5-.2 21.2-6.2 24.6-15.1 2.2-5.8 3.8-11.2 3-13.9-21-1.2-46.9-3.7-72-8.3-18.3-3.3-35.2-7.4-50.7-11.7-.8.6-3.5 2.5-4.9 6.3zM708.2 324.8c4.7-5.4 4.1-11.9 4-13-10.7-2.7-21.9-5.7-33.3-9.3-22.8-7.1-43.4-15.1-62-23.3-.4 1.1-.8 2.3-1 3.6-1.1 5.6 2 10.1 3 13.1 13.3 9.9 29.6 21.2 52.8 28.8 7.8 2.6 11.4 3.6 18.4 5 .8.1 12.6 1.5 18.1-4.9zM617.9 307.2c-.9.4-4.4 2-6.3 6-2.1 4.4-.9 8.5-.7 9.3 11.9 9.6 25.5 19.5 41 29 6.7 4.1 11.3 6.9 17.7 10.3 2.2.3 8.1 1.6 12.1-.4 6.6-3.2 12.6-11.9 12.2-20.6-11-3.6-25-7.2-37.7-13-14.6-6.7-27.3-13.8-38.3-20.6zM602.5 329.8c-5.8 3.8-5.3 10.4-5.7 12.3 5.1 6.8 8.9 14 15.7 21.3 9.5 10.4 18.8 18.6 27.5 25.8 2.7.7 7 1.5 12 .3 9.2-2.1 14.7-8.8 17.2-12.9.9-1.5.4-3.5-1.2-4.3-10.9-5.5-23.3-12.8-36.2-22.6-9.8-7.5-18.1-15-25-22-1.2.5-2.7 1.1-4.3 2.1zM583.9 354.2c-1.7 1.7-2.7 3.5-3.3 4.9 3.9 10.5 9.6 23.5 23.7 35.1 2.5 2 5.2 8 7.7 9.5 1.2.5 6-.9 10.3-1.8 3.2-.7 7.8-2.4 10.7-3.8 1.4-.7 1.6-2.5.5-3.5-5.2-4.5-13.8-11.2-17.8-15.7-10.1-11.5-16.9-19.2-23.4-29.6-1.9.4-5.4 1.7-8.4 4.9zM574.8 367.5c-.6.1-2 .3-3.2 1.3-2.4 2.1-2 5.4-2 5.7 2.2 3.3 4.6 7.3 6.7 12 4.1 9 5.9 17.3 6.7 23.7.6.5 4 3.7 9 3.3 4.3-.3 8.1-3 10-7-6.9-9-14.8-17.7-21.7-28-2.3-3.4-3.5-7.7-5.5-11zM934.9 235.5c-8.3-5.2-16.8-5.7-21.1-5.7-47.4 3.9-94.9 7.8-142.3 11.7-.6 0-3.8.3-6.2 3-1.5 1.6-2 3.5-2.2 4.9-.2 1.5 1 2.7 2.5 2.8 13.7.5 24.8.8 32.2 2 42.5 7 57.4 9.2 92.2 10.2 12.5.4 22.7 0 28.8-.3 3.9-2 9.4-5.4 14.7-10.9 3.4-3.5 5.8-7 7.6-10 .6-1 .5-2.4-.4-3.2-1.5-1.4-3.4-3-5.8-4.5zM911.8 270.8c-8.4.2-17 .3-25.8.2-46.5-.4-89.3-5.6-127.7-13.2-.5.1-2.8.7-4.3 3-.9 1.4-1 2.8-1 3.5 12.1 4.4 24.7 8.7 37.8 12.8 37.6 11.7 73.2 19.8 106.2 25.5 15.3-2 24.4-12.3 23.5-20.5-.6-6.2-6.7-10.1-8.7-11.3zM890 308.8c-23.7-3.2-49.9-8.5-78.2-15.2-29.2-7-42.2-13.4-63.9-19.9-2-.6-4 .2-4.8 2.1-.4.9-.7 2.1-.8 3.3-.4 4.7 2.2 8.1 2.8 8.8 7.3 3.3 14.7 6.5 22 9.8 34.6 15.3 69 30.2 103.2 44.8 16 2.4 30.4-8.6 31.2-18.2.9-9.4-10.7-15-11.5-15.5zM865.6 351.1c-4.6-2.8-11.3-6.5-19.4-10.7-31.7-16.2-46.4-17.8-73.4-31.2-6.7-3.3-16.1-5.6-26.9-13.3-1.6-1.1-3.7-1.4-5.5-.6-1.8.8-4 2.1-6.1 4.1-1.2 1.2-2.2 2.4-3 3.6-1.7 2.5-1 6 1.5 7.7 2.7 1.9 6 4.1 9.8 6.5 19.3 12.2 39.3 21.9 53.2 28 13 5.7 24.2 12.8 49.5 22 .4.1.7.3 1.1.4 10 2.6 18.7-.8 21.3-6.6.3-.8 1.1-2.9.6-6-.3-1.6-1.3-3-2.7-3.9zM825.8 368.5c-11.5-4.6-20.5-8.8-26.5-11.8-25-12.3-36.4-21.5-65.5-35.2-4.9-2.3-9-4.1-11.5-5.2-1.4.6-3.5 1.7-5.5 3.8-4.2 4.3-5.5 10.6-4.5 14.9 1.7 7 10.4 10.2 17.2 13.1 17.4 7.5 6.9 7 54.4 35.7 0 0 .3.2 27.1 16.1 3.4.8 9.6 1.9 17 .2 4.9-1.1 8.7-3 11.2-4.5-.6-3.9-1.9-9.6-5.2-15.8-2.6-5.1-5.7-8.8-8.2-11.3zM780 393.3c-21.7-15.2-34.4-20.5-57.8-37.8-5.8-4.3-10.6-8.1-14.1-10.9-1.4-1.1-3.4-.9-4.4.5-1.7 2.2-3.5 4.8-5.2 7.9-1.8 3.2-2 7.3-2.9 9.9-.5 1.3 0 2.8 1.2 3.6 6.1 4.2 13.5 9.4 22.7 17.7 26.8 24.3 33.9 42.6 54.2 46 3.5.6 12.3 1.9 21.2-2.8 5.6-2.9 9.2-7.2 11.3-10.4.9-1.3.6-3.1-.6-4.1-10.3-8.7-19.3-15.3-25.6-19.6zM741.5 416c-14.3-12-23.3-16.1-38.5-29.8-7-6.3-12.3-11.9-15.5-15.5-.3-.1-4.3-.7-7.2 2.2-2.1 2.1-2.8 5.1-2 8 9 15 22.5 33.3 42.2 50.5 7.4 6.5 14.8 11.9 21.7 16.5 2 .4 7.4 1.1 13.3-1.5 3.3-1.4 6.1-3.8 8-5.8 1.4-1.4 1.4-3.7.1-5.2-8.5-9.1-16.8-15-22.1-19.4zM705 423.8c-11.3-10.9-22.5-20.3-33-28.2-2.7 0-6.6.3-11 1.8-2 .7-3.8 1.5-5.3 2.3-1.2.6-1.4 2.2-.5 3.2 1.9 2 4.5 5.1 6.8 8.1 15.9 20.4 12.8 21.7 22.1 32.1 2.8 3.1 7.2 7.6 13.6 12.1 2.8.1 7.5 0 12.8-2 7.1-2.7 11.4-7.4 13.2-9.8-5.6-6.5-11.8-13-18.7-19.6zM645.3 405c-2.1-.2-7-.3-12.1 2.4-2.7 1.5-4.5 3.2-5.7 4.6 5.6 13.3 13.1 27.8 23 42.5 2.5 3.7 5 7.2 7.5 10.5 3.7 1.3 9.9 2.9 17.5 2.1 3.7-.4 6.8-1.2 9.3-2.1-6.2-11.3-13.4-23.2-21.8-35.5-5.9-8.8-11.8-16.9-17.7-24.5zM644.5 467.8c-6.5-15.2-12.5-21.2-19.8-35.5-1.9-3.8-4.5-9.2-7.1-16.1-.6-1.6-2.2-2.5-3.9-2.2-2.4.5-5.4 1.3-8.6 3.1-3.7 2-6.4 4.6-8.1 6.5-.9 1-1.1 2.4-.6 3.6 4.8 10.8 10.3 22.1 16.9 33.8 3.4 6 6.8 9.3 10.2 14.5.3.5.8.9 1.3 1.2 4.1 2.1 12.8 7.5 21 3.9 1.6-.7 2.4-2.6 1.8-4.2-.6-2.5-1.7-5.4-3.1-8.6zM613.5 484.5c-11.8-31.9-21.7-46.3-25-51-2.5-3.5-4.7-6.4-6.2-8.2-2.1.8-6.1 2.8-9.5 7-4.4 5.5-5.1 11.3-5.2 13.5 1.4 8.1 8.2 36 46.8 71.2 1.7 1.6 4.6 1.6 7.2 2.2 2.2.5 4.1-1.6 3.5-3.8-3.4-11.7-8.8-23.4-11.6-30.9zM415.8 148.5c0 1.5 1.2 2.7 2.7 2.8l26.3 2.8 1.7 16.1c.3 3.1 1.5 7.6 3.5 12.3 1.5 3.5 5.3 10.5 5.3 10.5l-.1 8.9c7.7-1.7 14.6-2.4 19.8-2.7 0 0 1.7-.1 4.8-.1h.2c3 0 4.8.1 4.8.1 5 .3 11.7.9 19.1 2.5l-.1-8.5s3.8-7 5.3-10.5c2-4.8 3.2-9.2 3.5-12.3l1.7-16.1 26.3-2.8c1.5-.1 2.7-1.3 2.7-2.8V138c0-1-.8-1.8-1.8-1.8-14.6-.4-30.8-2-45.7-2.5-4.8-10.5-4.7-33.7-4.4-24.1-1-28.7.1-44.4 3.3-67.8l6 .1c1.2 0 2.3-1 2.3-2.2V16.6c0-1.2-.9-2.1-2-2.2l-7.5-.6c-.1-1.2-.9-6.3-5.5-10.1-3-2.5-6.2-3.1-8-3.3V0c-1.4.1-5.2.5-8.7 3.4-4.6 3.7-5.4 8.9-5.5 10.1l-7.5.6c-1.1.1-2 1.1-2 2.2v23.1c0 1.2 1 2.2 2.3 2.2l6-.1c3.2 23.5 4.3 39.2 3.3 67.8.3-9.6.4 13.7-4.4 24.1-14.9.5-31 2-45.7 2.5-1 0-1.8.8-1.8 1.8v10.8zM505.1 488.7h-51.3l-.4 76.8c-.3 12.1 4.3 40.6 9.8 60.2 4.9 17.2 10.1 20.6 15.8 29.4v1.4c.2-.2.3-.5.5-.7.1.2.2.3.3.5v-.9c5.8-8.9 11-12.2 15.8-29.4 5.5-19.6 10.1-48.1 9.8-60.2l-.3-77.1z"/><path d="M562.2 366c-5.3-6.7 20.9-56.7 7.1-100.8-16.2-51.8-64.1-59.9-84.9-60.9 0 0-1.8-.1-4.8-.1h-.2c-3 0-4.8.1-4.8.1-20.7 1.1-68.7 9.1-84.8 60.9-13.8 44.2 12.4 94.1 7.1 100.8-21.3 27 7.7 69.8 11.6 73.3 7.1 6.4 29.8-6.5 26.2.1-2.7 5.1-5.2 43.3-5.2 43.3h7l3.4-13.3 6-.1 1.2 13.4h12.3l1.2-12.8 4.1-.6.6 13.4h9.9l.5-13.7h8.1l.5 13.7h9.9l.6-13.4 4.1.6 1.2 12.8H512l1.2-13.4 6 .1 3.4 13.3h7s-2.5-38.2-5.2-43.3c-3.6-6.7 19.1 6.2 26.2-.1 3.9-3.5 32.9-46.3 11.6-73.3zm-95.9 28c-2.8 3.4-6.8 7.5-12.2 10.8-13.1 8.1-26 6.9-31.3 6.1-.3 0-.7-.2-1-.4-11.4-7.9-15.8-20.3-12.4-28 .5-1.2 2.4-5.1 8.4-7.5.3-.1.7-.2 1-.2 7.2.7 16.2 2.3 26.2 5.7 8.1 2.7 14.9 6.1 20.5 9.3 1.5.8 1.9 2.8.8 4.2zm27.4 46.7c0 .9-1 1.2-1.5.5-1.2-1.7-2.9-3.7-5.2-5.5-2.4-1.9-4.7-3.2-6.6-3.9-1.8.7-4.1 1.9-6.6 3.9-2.3 1.8-4 3.8-5.2 5.5-.5.7-1.5.3-1.5-.5-.4-6.5-.1-19.9 8.9-29.6 1.2-1.3 2.7-2.4 4.4-3.4 1.7 1.1 3.3 2.2 4.4 3.4 9 9.7 9.3 23.1 8.9 29.6zm43.8-30.2c-.3.2-.6.3-1 .4-5.2.8-18.2 1.9-31.3-6.1-5.4-3.3-9.4-7.4-12.2-10.8-1-1.3-.7-3.3.7-4.1 5.6-3.2 12.5-6.5 20.5-9.3 10-3.4 19-5 26.2-5.7.3 0 .7 0 1 .2 6 2.4 7.9 6.3 8.4 7.5 3.5 7.6-.9 20-12.3 27.9z"/></svg>