<svg xmlns="http://www.w3.org/2000/svg" viewBox="0 0 615.6 977" style="enable-background:new 0 0 615.6 977" xml:space="preserve"><path d="M615.3 492c-11.5-69.2-54-100.8-111.1-104-34.6-1.9-80 11.8-113.7 41.3 15.2-38.5 46.4-135.3 16.6-252-23-89.7-71.3-149.1-97.7-177.3-26.3 28.2-74.7 87.6-97.6 177.3-31.2 121.8 4.3 222 18.5 256.8-34.2-32.8-82.5-48.1-118.9-46.1C54.3 391.2 11.8 422.8.3 492c-8.7 158 187.3 150.8 186.5 89.7-100.8-7.9-6.4-85.7 21.4-12.7 5 16.1 5.5 47.4 5.6 53.7l-1.7 8.2h-76v63.5H256c-.5 1.4-1.1 3-1.6 4.9-15.6 54.8-102.6 36-102.6 36 6 78 68 92 102.6 83 1.4-.4 2.6-1 3.8-1.8l1.2 4.2c2.8 24.3 8.4 53.9 19.4 86.6 9 26.7 19.6 49.4 29.7 68l.5 1.7c10.1-18.6 20.7-41.3 29.7-68 11-32.7 16.6-62.4 19.4-86.6l.8-3.1c39.5 8 92.3-10.3 98-84 0 0-87 18.8-102.6-36-.5-1.9-1.1-3.5-1.6-4.9h130.1v-63.5h-81.3v-7.2c.2.1.3.1.3.1s0-36.8 5.6-54.8c27.8-73 122.2 4.8 21.4 12.7C428 642.8 624 650 615.3 492z"/></svg>