<svg xmlns="http://www.w3.org/2000/svg" viewBox="0 0 1000 1000" style="enable-background:new 0 0 1000 1000" xml:space="preserve"><path d="M763.3 452.2s183.2 18.6 222-18.6c18.6-31 4.7-54.3 4.7-54.3-35.7 63.6-245.3 48.1-361.7 10.9-21 3.8-14 12.4-18.6 27.9s-20.2 40.4-48.1 46.6c-1 .1-2 .2-3 .4.1-.1.2-.2.3-.4l-.4.4c-.8.1-1.6.3-2.4.5-2.9-4.4-2.7-30.4 2.8-69.3 0-38.8-59.5-30.1-65.2-27.9-34.7 11.9-79.2 41.9-76.1 46.6 3.1 4.7 60.3-17.6 65.2 12.4-1.6 26.4-18.6 38.8-43.5 37.3-27.9-6.2-43.5-31-48.1-46.6-4.7-15.5 2.4-24.1-18.6-27.9-116.4 37.3-326 52.8-361.7-10.9 0 0-14 23.3 4.7 54.3 38.8 37.3 222 18.6 222 18.6 12.1 8.3-3.1 20.8-6.2 18.6H10.8l45 55.9 192.5-15.5c9.9 3.2 9.2 10.2 6.2 18.6-68.3 12.4-132.1 25.1-183.2 12.4 0 0 35.7 49.7 49.7 51.2 55.9 1.6 127.3-34.2 127.3-34.2 7.8 0 7.9 12.1 1.6 18.6-24.4 19.8-65.7 37.7-118 54.3 46.9 21.6 108.7 20.2 141.3-21.7 17.1-2.7 20.2 8.9 20.2 10.9-8.8 27.7-33.8 52.7-74.5 73 18.9 10.7 44.7 11.1 73 7.8 32.6-14 45-63.6 52.8-60.5 7.8 3.1 6.3 30.9-7.8 57.4 20.6 1.6 44.9-9 54.3-26.4 0 0 20.2-54.3 24.8-20.2 12 88.2-77.6 124.2-77.6 124.2 41.9 26.7 112.1-33.6 90-1.6-31 60.5-127.3 27.9-55.9 52.8s86.9-37.3 86.9-37.3 9.3-17.1 15.5 0c-4.1 50.3 17.6 79.1 24.5 83.5v.4c.2.2.5.3 1 .1.5.1.8.1 1-.1v-.4c6.9-4.3 28.5-33.2 24.5-83.5 6.2-17.1 15.5 0 15.5 0s15.5 62.1 86.9 37.3-24.8 7.8-55.9-52.8c-22.1-32.1 48.1 28.2 90 1.6 0 0-89.6-36-77.6-124.2 4.7-34.2 24.8 20.2 24.8 20.2 9.4 17.4 33.7 28 54.3 26.4-14.1-26.6-15.5-54.3-7.8-57.4 7.8-3.1 20.2 46.6 52.8 60.5 28.3 3.3 54.1 3 73-7.8-40.7-20.2-65.7-45.2-74.5-73 0-2 3.1-13.5 20.2-10.9 32.6 41.9 94.3 43.4 141.3 21.7-52.3-16.6-93.6-34.5-118-54.3-6.4-6.5-6.2-18.6 1.6-18.6 0 0 71.4 35.7 127.3 34.2 14-1.6 49.7-51.2 49.7-51.2-51.1 12.6-114.9 0-183.2-12.4-3-8.5-3.6-15.4 6.2-18.6L945 526.7l45-55.9H769.5c-3 2.2-18.3-10.3-6.2-18.6zM512.2 387c6.2 3.1 0 9.3 0 9.3s-20.2 6.2-24.8 3.1c-4.7-3.1 18.6-15.5 24.8-12.4zm34.4 265.5c-.1 23.2-18.9 41.9-42 41.9-23.2 0-42-18.7-42-41.9v-.2c1.5-18.4 24-111.4 40.8-183.7.3-1.2 2.1-1.2 2.4 0 16.4 69.7 40.9 172.9 40.9 183.7-.1 0-.1.1-.1.2z"/></svg>