<svg xmlns="http://www.w3.org/2000/svg" viewBox="0 0 900 752" style="enable-background:new 0 0 900 752" xml:space="preserve"><path d="M436 752c-4.9-.9-9.8-1.6-14.7-2.6-37.2-7.5-58.2-29.9-63.4-67.5-3.8-27.6-.5-54.9 4.5-82 8.2-44.2 22.2-86.7 35.3-129.6 19.4-63.4 37.1-127.2 50.8-192.1.3-1.2.6-2.4 1.9-3.6 1.7 7.5 3.3 15.1 5 22.6 16.1 71.9 36.9 142.5 58.9 212.7 11.1 35.5 20.8 71.3 26.1 108.2 3.3 22.8 4.9 45.7.6 68.6-6.8 36.1-28.9 57.5-65.4 63.2-3.9.6-7.8 1.3-11.7 2-9.2.1-18.6.1-27.9.1zM25.2 428.9c1.6 0 3.2-.1 4.8 0 33.4 1.9 66.6 1.7 99.7-3.9 6.8-1.2 13.5-3.5 20.2-5.5 1.7-.5 3.6-1.5 4.6-2.8 1.2-1.5 2.2-3.8 2-5.5-.1-1-3.1-2-4.8-2.1-11.6-.7-23.4.1-34.8-1.8-24.7-4.1-45.2-17.3-63.7-33.7-20.4-18.1-36.7-39.5-51.3-62.3-.2-.4-.3-.9-.6-1.9 2.3.9 4.1 1.5 5.8 2.2 27.9 11.3 56.4 20.6 86.4 23.8 10.5 1.1 21.2.1 31.8 0 .5 0 1.1-.1 1.5-.3 3.4-2.1 6.8-4.3 10.2-6.4-2.5-2.6-4.6-5.9-7.6-7.8-16.9-10.9-34.6-20.7-51-32.4-25.2-18-44.7-40.9-54.9-70.7-5.3-15.4-7.4-31.3-6.4-48.7 1.9 1.6 3.3 2.6 4.6 3.7 24.2 21 49.5 40.6 77.2 56.7 9.2 5.3 19 9.5 28.8 13.7 3.5 1.5 8.2 3.3 11-.9 2.6-3.9-1-7.3-3.4-10.1C96.6 186 81.1 131.1 75.1 72.8c-2.2-21-2.6-42.2-3.7-63.3-.1-1.8 0-3.6 1.1-5.7l2.1 4.5c19.6 44 42.7 85.9 71.8 124.3 42.2 55.5 95.9 95.2 161.3 119.4 10.1 3.8 20 8.3 29.9 12.6 3 1.3 5.9 3 8.8 4.7 22.3 13.7 27.6 40.9 11.3 61.5-5.2 6.6-12.1 11.8-18.7 17.2-6.7 5.5-14.1 10.1-20.8 15.5-21.5 17.1-27 39.8-20.8 65.5 6 24.9 23.9 37.4 47.7 42.9 5.2 1.2 10.5 1.7 16.3 2.6-8.3 22-16.5 44-24.9 66.5-1.7-1.6-3-2.8-4.3-4-18.2-17.2-41.8-19.8-62.8-6.4-6.7 4.3-12.8 9.6-18.8 14.8-7.2 6.2-14 12.9-21 19.2-20.9 18.8-45.1 28.1-73.6 26.6-25.4-1.3-50.1-4.8-72.4-18.2-4.2-2.5-8.1-5.5-13.1-8.9 8.1-2.2 15.1-3.7 21.7-6.1 17.3-6.3 34.6-12.8 51.7-19.9 6.5-2.7 12.5-7 18.3-11.1 3.6-2.6 7.2-5.7 9.6-9.4 2-3.1 3.4-7.5 2.8-10.9-.3-1.6-5.8-3.1-9-3.4-15.1-1.3-30.3-1.4-45.3-3.5-42.3-5.9-74.2-27.1-93.3-66-.6-1.2-1.1-2.4-1.6-3.6-.4-.3-.3-.7-.2-1.3zM871.3 428.9c-1.6 0-3.2-.1-4.8 0-33.4 1.9-66.6 1.7-99.7-3.9-6.8-1.2-13.5-3.5-20.2-5.5-1.7-.5-3.6-1.5-4.6-2.8-1.2-1.5-2.2-3.8-2-5.5.1-1 3.1-2 4.8-2.1 11.6-.7 23.4.1 34.8-1.8 24.7-4.1 45.2-17.3 63.7-33.7 20.4-18.1 36.7-39.5 51.3-62.3.2-.4.3-.9.6-1.9-2.3.9-4.1 1.5-5.8 2.2-27.9 11.3-56.4 20.6-86.4 23.8-10.5 1.1-21.2.1-31.8 0-.5 0-1.1-.1-1.5-.3-3.4-2.1-6.8-4.3-10.2-6.4 2.5-2.6 4.6-5.9 7.6-7.8 16.9-10.9 34.6-20.7 51-32.4 25.2-18 44.7-40.9 54.9-70.7 5.3-15.4 7.4-31.3 6.4-48.7-1.9 1.6-3.3 2.6-4.6 3.7-24.2 21-49.5 40.6-77.2 56.7-9.2 5.3-19 9.5-28.8 13.7-3.5 1.5-8.2 3.3-11-.9-2.6-3.9 1-7.3 3.4-10.1 38.8-46 54.2-100.9 60.3-159.2 2.2-21 2.6-42.2 3.7-63.3.1-1.8 0-3.6-1.1-5.7L822 8.5c-19.6 44-42.7 85.9-71.8 124.3-42.2 55.3-96 95-161.3 119.2-10.1 3.8-20 8.3-29.9 12.6-3 1.3-5.9 3-8.8 4.7-22.3 13.7-27.6 40.9-11.3 61.5 5.2 6.6 12.1 11.8 18.7 17.2 6.7 5.5 14.1 10.1 20.8 15.5 21.5 17.1 27 39.8 20.8 65.5-6 24.9-23.9 37.4-47.7 42.9-5.2 1.2-10.5 1.7-16.3 2.6 8.3 22 16.5 44 24.9 66.5 1.7-1.6 3-2.8 4.3-4 18.2-17.2 41.8-19.8 62.8-6.4 6.7 4.3 12.8 9.6 18.8 14.8 7.2 6.2 14 12.9 21 19.2 20.9 18.8 45.1 28.1 73.6 26.6 25.4-1.3 50.1-4.8 72.4-18.2 4.2-2.5 8.1-5.5 13.1-8.9-8.1-2.2-15.1-3.7-21.7-6.1-17.3-6.3-34.6-12.8-51.7-19.9-6.5-2.7-12.5-7-18.3-11.1-3.6-2.6-7.2-5.7-9.6-9.4-2-3.1-3.4-7.5-2.8-10.9.3-1.6 5.8-3.1 9-3.4 15.1-1.3 30.3-1.4 45.3-3.5 42.3-5.9 74.2-27.1 93.3-66 .6-1.2 1.1-2.4 1.6-3.6.2-.3.1-.7.1-1.3z"/></svg>