<svg xmlns="http://www.w3.org/2000/svg" viewBox="0 0 1000 1000" style="enable-background:new 0 0 1000 1000" xml:space="preserve"><switch><g><path d="M792.13 644.04c-5.23 0-9.46-2.12-9.46-4.73 0-2.35 3.44-4.3 7.94-4.66l-31.07-61.05s-5.26 35.75-24.18 46.26c-7.49-4.16-30.14-28.09-39.24-37.88a267.13 267.13 0 0 0 46.3-61.99c11.82 2.95 29.63 9.82 47.61 16.81v8.41l30.49-3.15-21.03-15.77-5.26 5.26c-17.65-7.6-34.55-15.04-46.74-21.44a263.67 263.67 0 0 0 23.9-77.23c22.25-6.23 44.35-8.8 62.8 2.99-7.78 2.59-13.36 10.54-17.87 21.03 45.29-28.92 98.16-46.15 156.66-54.67-20.32-4.15-40.3-8.74-59.95-13.76l1.07 5.35-4.32-6.18c-22.53-5.82-44.6-12.23-66.16-19.31-.19 1.94-1.04 3.4-2.06 3.4-1.16 0-2.1-1.88-2.1-4.21 0-.19.02-.37.03-.55-9.57-3.19-19.05-6.5-28.42-9.96 0 0 9.46 22.08 5.26 25.23-3.52 2.64-29.93-4.31-42.73-7.25-1.78-25.41-7.12-49.84-15.56-72.79l16.23-12.48-20.25 2.25a265.647 265.647 0 0 0-40.04-66.65c3.55-5.57 6.66-10.25 6.66-10.25 7.92-2.66 14.45.71 19.98 8.41 25.57-39.99 50.86-77.03 75.7-109.34-60.98 35.75-97.78 65.19-128.27 65.19 0 0 14.72 4.21 13.67 7.36s-3.15 6.31-3.15 6.31l-9.46-3.15c2.3 3.31 2.63 6.54.62 9.65-20.84-19.45-44.81-35.6-71.07-47.61-1.57-11.18-1.04-23.76.01-37.74l-15.92 31.08c-22.76-8.67-47.01-14.31-72.26-16.44l-.43-7.36c2.2-1.35 4.5-3.02 4.5-4.12 0-1.3-3.22-9.85-5.68-16.18l-.1-1.7 7.88-7.35-7.19-19.41L544 76.29C538.75 65.78 532.44 42.64 520.87 9c-3.15 32.59-5.26 46.26-21.03 58.88h11.57c3.31 14.55 4.2 31.59 3.61 50.47h-5.71l5.63 2.11c-.09 2.45-.2 4.93-.34 7.44-2.29-.06-4.58-.09-6.88-.09-18.24 0-36.08 2.12-53.3 6.14-6.67-8.64-13.75-24.27-20.82-39.78l4.99 44.06c-10.6 3.26-20.92 7.25-30.9 11.93l-4.58-7.63 1.31 9.2c-17.5 8.52-33.93 19.14-48.98 31.6l-11.22-13.46c7.36-3.15 16.82-9.46 23.13-16.82-33.95-2.55-76.81-20.97-113.55-46.26 28.55 38.39 54.93 75.16 56.78 93.57l12.62-5.26 11.38 7.58c-17.48 18.15-32.42 39.09-44.18 62.2-11.86 1.63-25.42-2.33-39.74-8.81 11.85 9.65 22.66 19.62 29.79 30.77-3.2 8.03-6.03 16.27-8.47 24.71l-10.81 18.12 3.53 14.42c-.93 5.79-1.69 11.64-2.26 17.56-16.35-2.51-38.05-12.53-39.13-24.62-15.77 14.72-14.08-2.32-19.98-13.67C190.74 348.6 65.01 352.01 12 357.01c82.32 20.15 170.12 33.07 214.48 59.93v-23.13l34.7-4.34c.04 15.15 1.15 30.06 3.25 44.62 2.43.52 4.1 1.59 4.1 2.82 0 1.09-1.29 2.05-3.26 2.62 1.35 8.33 3.05 16.54 5.05 24.6-7.91 4.99-18.71 10.39-30.18 15.88 12.39-.77 25.61-1.83 34.2-1.23 6.52 21.5 15.36 41.84 26.31 60.57l-4.78-1.52c-1.74 1.49-.45 4.27-2.44 6.21l-14.38-4.11 6.68 11.88c-6.39 6.62-13.92 14.68-22.93 23.85l1.53 8.43-6.82-3.1c-1.74 1.73-3.52 3.5-5.36 5.3l-.43 5.16-3.14-1.69a650.882 650.882 0 0 1-28.4 25.87v16.82l-7.36-5.26 5.53 19.35-.92 1.18-14.07-3.7 4.54 15.9-3.98 5.09c-12.79-11.65-26.66-22.5-41.57-32.55L58.76 811.16l1.6 3.2-2.81-1.12-21.37 36.87 123.48-63.47c.96-1.71 2.07-3.51 3.32-5.36 5.37-7.93 11.09-13.44 12.77-12.3 1.3.88-.19 5.45-3.39 11.13l88.82-45.65c-10.41-17.32-22.47-33.38-36.07-48.29l22.4-12.69 9.46 8.41 26.34-23.51c-.29-.43-.55-.88-.77-1.35-3.27-7.12 2.63-16.83 13.18-21.68 5.56-2.55 11.28-3.23 15.95-2.28L332 614.93c7.79 3.64 15.34 8.62 22.75 14.39-2.77-8.68-6.92-16.58-12.14-23.86l6.6-5.89c19.64 17.79 42.16 32.24 67.12 42.53l-5.46 14.55h-1.45v3.86l-5.26 14.02h-4.21s.26 4.99.66 9.46l-2.76 7.36c-2.06 1.22-5.17-1.26-8.41-4.21 1.82 18.64-.1 35.36-3.15 51.52 7.53-16.48 16.02-30.76 26.28-41l-6.31-3.15 21.03-48.19c24.73 8.74 51.66 13.5 80.43 13.5.81 0 1.62-.02 2.42-.03.73 8.87.58 19.94.35 31.21l-6.46 3.52 6.81 3.2 1.32 24.99-13.38 3.35 14.21 12.44 2.61 49.6-25.23-27.34c16.87 43.11 30.85 89.03 42.56 137.19 1.59.56 2.65 1.54 2.65 2.65 0 .82-.57 1.56-1.5 2.12 6.86 28.68 12.93 58.15 18.33 88.3 11.63-71.56 24.79-141.56 41-208.18-9.2 14.79-18.37 27.64-27.34 30.49l-1.96-66.9 12.47-2.49-12.74-6.65-.87-29.89c4.11-2.34 8.35-4.46 8.35-4.46l-8.59-3.43c-2.31-15.17-5.32-31.05-5.68-44.24 5.1-.95 10.15-2.05 15.15-3.29 12.46 4.52 21.12 13.75 15.94 19.42l14.72 26.28 3.15-29.44c-3.81-10.18-3.84-19.29.28-27.21a265.554 265.554 0 0 0 51.63-27.46l45.87 42.05c-1.24 7.48-10.51 19.98-30.49 24.18l100.94 63.35c.99-.17 2.05-.26 3.14-.26 5.81 0 10.51 2.59 10.51 5.78 0 .87-.36 1.69-.99 2.43l92.46 58.02-84.14-165.34c-.94.16-1.99.26-3.09.26zM671.09 556.5l-55.71-57.54c19.75-18.81 34.08-43.58 39.81-72.24.35-1.75.65-3.5.93-5.25 6.74-4.78 13.45-8.73 17.2-8.73 9.46 0 16.82 5.26 18.93 9.46 9.46-5.26 36.8 2.1 36.8 2.1 2.26.85 4.2 2.18 5.9 3.87a231.095 231.095 0 0 1-18.9 63.42c-9.78-.33-26.21-3.83-42.73-7.36 12.46 8.56 26.2 17.2 33.38 25.41a228.891 228.891 0 0 1-35.61 46.86zm-238.21 51.47a222.654 222.654 0 0 1-54.22-30.51c7.23-8.87 19.07-20.71 33.39-34.34 8.8 1.58 17.41 4.53 25.77 9.45-7.8-6.57-14.01-12.86-17.69-18.68 7.53-8.64 14.18-16.46 18.37-21.74 15.4 10.75 33.24 18.59 52.88 22.52 2.21.44 4.41.82 6.62 1.16-3.41 22.26 2.02 44.27 14.28 66.09-5.39 3.64-9.08.45-12.42-4.14 2.18 7.45 1.28 15.86-1.14 24.76a219.71 219.71 0 0 1-60.37-12.52v-7.5l-5.47 5.45zM302.36 473.22c5.83-4.15 20.85-20.54 20.85-20.54l-21.24 3.4c.71-14.62 1.33-29.17 2.26-43.65 27.77-4.3 61.37-10.3 74.83-10.44.49 21.66 6.13 42.5 15.97 61.06-7.32 7.46-19.18 19.25-22.61 20.88-5.07 2.4-9.27-3.9-9.27-3.9s-.83 6.62-1.69 14.28c-8.21 12.87-18.54 23.77-31.54 32.19a230.523 230.523 0 0 1-27.56-53.28zM505.04 286.2c5.09 14.63 9.25 31.76 12.68 50.84 5.31-25.78 2.42-37.34 3.54-51.25 6.43.26 12.93 1.02 19.45 2.32 15.3 3.06 29.35 8.81 41.73 16.64 1.63 7.23 1.69 15.96-1.64 15.46 0 0-17.87 6.31-18.93 9.46s-9.46 22.08-9.46 22.08 19.98-7.36 24.18-6.31 9.46 2.1 9.46 2.1c-3.38-8.44 6.15-18.48 18.73-24.63 14.13 14.61 24.34 32.56 29.44 52.11-15.09 1.76-31.27 1.87-48.17.91l-14.72 9.46-13.67 6.31c27.49 11.76 49.38 22.76 47.31 30.49 9.84-4.92 19.14 2.98 28.33 13.3-6.14 21.01-18.01 39.12-33.63 53.05-14.59-8.88-39.78-35.55-63.04-58.99 17.99 26.99 35.68 53.71 44.49 72.55a120.389 120.389 0 0 1-30.99 12.88c-1.72-3.51-2.61-6.95-2.98-10.33-3.7-7.52-4.71-14.52 0-20.43 0 0-11.57 0-11.77-3.72-8.2-7.85-13.6-33.05-16.61-46.75l-17.87 30.49c-4.12-.61 2.84 45.08 1.02 53.41-2.3-.33-4.6-.71-6.9-1.18-16.05-3.21-30.73-9.39-43.55-17.81 1.26-18.15 11.78-51.45 26.3-78.58-19.35 9.27-38.37 18.51-46.26 26.28-2.79-3.04-1.92-7.15 0-11.57-7.85 6.02-15.59 10.99-23.13 13.98-6.05-13.13-9.67-27.39-10.41-42.13 9.7-5.6 32.87-14.45 65.08-25.47-20.93-6.95-45.86-14.64-58.03-19.98 7.09-18.99 19.01-35.29 34.1-47.83 9.31 4.78 17.16 11.12 18.67 23.65 10.38 3.02 22.26 12.86 34.7 25.23-13.44-19.38-23.23-36.32-24.18-47.31-8.95-1.1-12.1-6.2-12.79-13.02 14.88-8.59 31.76-14.07 49.52-15.71zm103.58-99.8a224.074 224.074 0 0 1 48.32 31.55c-4.56 6.44-15.09 16.73-24.09 26.03l5.26 4.21-17.87 8.41-21.03 14.72 13.67 11.57-13.19 4.57c-15.69-11.21-33.98-19.37-54.15-23.41-6.74-1.35-13.47-2.18-20.13-2.55l2.16-42.03 6.99-5.44-6.16-10.78 1.95-37.96c23.17 1.81 45.35 7.22 66.02 15.66-.93 4.81-4.58 12.13-8.19 19.41l20.44-13.96zm92.04 143.27v-9.46c7.29-2.09 14.6-5.7 23.98-2.9 5.31 15.31 9.08 31.37 11.1 47.99-7.7 7.75-37.8 14.84-41.38 14.84-4.21 0-14.72-6.31-14.72-6.31l-24.66-1.97c-5.08-24.21-16.64-46.54-33.14-64.7 3.84-3.71 7.86-7.45 7.86-7.45l16.82-12.62 9.46-11.57 5.26-4.21 7.36-6.31c7.74-4.39 15.58-7.92 23.68-9.13a230.48 230.48 0 0 1 24.95 42.7c-4.96 4.66-12.64 8.97-20.76 13.22l-3.15-3.15-17.87 15.77 25.21 5.26zm-316.53 32.22c-17.35-1.22-45.94-5.24-73.23-8.92 3.36-18.77 8.23-37.42 15.52-55.93 6.64.17 13.28.89 19.92 2.14l-16.24-10.99c7.03-16.04 15.99-31.97 27.51-47.79 21.37 17.37 41.51 38.18 60.23 62.97-15.57 15.99-27.39 35.87-33.71 58.52zm201.92 248.7-3.15-10.7-2.21 12.51c-7.43 2.4-15.02 4.42-22.76 6.02l-9.83-84.02c13.15-2.79 25.72-7.44 37.36-13.72l53.99 62.52c-16.37 11.41-34.3 20.68-53.4 27.39zM511.5 164.63c-3.25 30.15-8.02 63-11.66 96.71v1.1a139.698 139.698 0 0 0-55.39 19.64c-34.69-30.86-66.96-60.47-55.94-79.01 15.87-10.82 33.16-19.63 51.54-26.07l19.85 34.93 2.83-41.54c15.69-3.68 32.01-5.65 48.77-5.76z"/></g></switch></svg>