<svg xmlns="http://www.w3.org/2000/svg" viewBox="0 0 879.8 879.8" style="enable-background:new 0 0 879.8 879.8" xml:space="preserve"><path d="m879.8 442.4-97.6-97.7v67.2H511.3l192.3-192.3L751 267V128.9H612.9l47.5 47.5-189.9 189.8V97.7h67.1L439.9 0l-97.7 97.7h67.2v272.1L217.7 178.1l47.5-47.5H127.1v138.1l47.4-47.4 190.6 190.6H97.7v-67.2L0 442.4l97.7 97.7V473h266L176.4 660.4l-47.5-47.5V751H267l-47.4-47.4 189.8-189.9v268.5h-67.2l97.7 97.6 97.7-97.6h-67.1V517.3l188 188-47.4 47.4h138.2V614.6l-47.5 47.5L512.7 473h269.5v67.1z"/></svg>