<svg viewBox="0 0 369 377" fill="none" xmlns="http://www.w3.org/2000/svg">
<path d="M299.368 243.691C297.361 243.691 295.738 242.877 295.738 241.876C295.738 240.974 297.058 240.226 298.785 240.088L286.862 216.66C286.862 216.66 284.843 230.379 277.583 234.412C274.709 232.816 266.017 223.633 262.525 219.876C269.54 212.88 275.541 204.868 280.292 196.088C284.828 197.22 291.662 199.856 298.562 202.539V205.766L310.262 204.557L302.192 198.505L300.174 200.524C293.401 197.607 286.915 194.752 282.238 192.296C286.724 183.106 289.863 173.14 291.409 162.66C299.947 160.269 308.428 159.283 315.508 163.808C312.523 164.801 310.381 167.852 308.651 171.878C326.03 160.78 346.319 154.168 368.767 150.898C360.97 149.306 353.303 147.545 345.762 145.618L346.173 147.671L344.515 145.3C335.869 143.066 327.4 140.607 319.127 137.89C319.054 138.634 318.728 139.194 318.336 139.194C317.891 139.194 317.53 138.473 317.53 137.579C317.53 137.506 317.538 137.437 317.542 137.368C313.869 136.144 310.232 134.873 306.636 133.546C306.636 133.546 310.266 142.019 308.654 143.227C307.304 144.241 297.169 141.574 292.257 140.445C291.574 130.695 289.525 121.32 286.286 112.513L292.514 107.724L284.744 108.587C280.879 99.2892 275.68 90.6818 269.379 83.0109C270.741 80.8734 271.934 79.0775 271.934 79.0775C274.973 78.0568 277.479 79.35 279.601 82.3048C289.414 66.959 299.118 52.7452 308.651 40.3465C285.25 54.0653 271.128 65.3626 259.428 65.3626C259.428 65.3626 265.077 66.9782 264.674 68.1869C264.271 69.3957 263.465 70.6083 263.465 70.6083L259.835 69.3996C260.717 70.6697 260.844 71.9092 260.073 73.1027C252.076 65.6389 242.877 59.4415 232.8 54.8328C232.198 50.5425 232.401 45.7151 232.804 40.3504L226.695 52.277C217.961 48.95 208.655 46.7857 198.966 45.9683L198.801 43.144C199.645 42.626 200.528 41.9851 200.528 41.563C200.528 41.0641 199.292 37.7831 198.348 35.3541L198.31 34.7017L201.334 31.8812L198.574 24.4328L204.15 25.8219C202.136 21.7888 199.714 12.909 195.274 0C194.066 12.5061 193.256 17.7519 187.204 22.5947H191.644C192.914 28.1781 193.256 34.7171 193.029 41.9621H190.838L192.999 42.7718C192.964 43.7119 192.922 44.6636 192.868 45.6268C191.989 45.6038 191.111 45.5923 190.228 45.5923C183.229 45.5923 176.383 46.4058 169.775 47.9484C167.215 44.6329 164.498 38.635 161.785 32.6832L163.7 49.5909C159.632 50.8418 155.672 52.373 151.842 54.1689L150.085 51.2409L150.588 54.7714C143.872 58.0408 137.567 62.1162 131.792 66.8976L127.486 61.7324C130.311 60.5236 133.941 58.1022 136.362 55.2779C123.334 54.2994 106.887 47.2308 92.7886 37.526C103.744 52.2579 113.867 66.368 114.577 73.4327L119.42 71.4142L123.787 74.323C117.079 81.2879 111.346 89.3234 106.833 98.1917C102.282 98.8172 97.0788 97.2975 91.5836 94.8109C96.131 98.514 100.279 102.34 103.015 106.619C101.787 109.7 100.701 112.862 99.765 116.101L95.6168 123.054L96.9714 128.588C96.6145 130.81 96.3228 133.055 96.1041 135.326C89.8299 134.363 81.5028 130.518 81.0883 125.879C75.0367 131.527 75.6852 124.988 73.4212 120.633C68.5899 130.318 20.3421 131.627 0 133.546C31.5896 141.278 65.282 146.236 82.3048 156.543V147.667L95.6206 146.002C95.6359 151.816 96.0619 157.537 96.8677 163.124C97.8002 163.324 98.4411 163.735 98.4411 164.207C98.4411 164.625 97.9461 164.993 97.1901 165.212C97.7081 168.409 98.3605 171.559 99.128 174.652C96.0926 176.567 91.9482 178.639 87.5467 180.746C92.3012 180.45 97.3743 180.044 100.671 180.274C103.173 188.524 106.565 196.33 110.767 203.517L108.933 202.934C108.265 203.506 108.76 204.572 107.996 205.317L102.478 203.74L105.041 208.298C102.589 210.839 99.6997 213.932 96.2422 217.451L96.8294 220.686L94.2123 219.496C93.5446 220.16 92.8615 220.839 92.1554 221.53L91.9904 223.51L90.7855 222.861C87.5697 225.966 83.9625 229.293 79.8872 232.789V239.243L77.0629 237.225L79.185 244.65L78.8319 245.103L73.4327 243.683L75.1749 249.785L73.6476 251.738C68.7395 247.267 63.417 243.104 57.6955 239.247L17.9437 307.822L18.5577 309.05L17.4794 308.62L9.27886 322.768L56.6632 298.412C57.0316 297.756 57.4575 297.065 57.9372 296.356C59.9979 293.312 62.1929 291.198 62.8376 291.635C63.3365 291.973 62.7647 293.727 61.5367 295.907L95.6206 278.389C91.6258 271.742 86.9979 265.579 81.7791 259.858L90.3748 254.988L94.005 258.216L104.113 249.194C104.001 249.029 103.902 248.856 103.817 248.676C102.562 245.943 104.827 242.217 108.875 240.356C111.009 239.378 113.204 239.117 114.996 239.481L122.797 232.52C125.786 233.917 128.684 235.828 131.527 238.042C130.464 234.711 128.872 231.68 126.869 228.886L129.401 226.626C136.938 233.453 145.58 238.998 155.158 242.946L153.063 248.53H152.506V250.011L150.488 255.391H148.872C148.872 255.391 148.972 257.306 149.126 259.021L148.066 261.846C147.276 262.314 146.083 261.362 144.839 260.23C145.538 267.383 144.801 273.799 143.63 280C146.52 273.676 149.778 268.197 153.715 264.267L151.294 263.058L159.364 244.566C168.854 247.92 179.188 249.746 190.228 249.746C190.539 249.746 190.85 249.739 191.157 249.735C191.437 253.139 191.379 257.387 191.291 261.711L188.812 263.062L191.425 264.29L191.932 273.88L186.797 275.165L192.25 279.939L193.252 298.973L183.57 288.481C190.044 305.024 195.409 322.646 199.902 341.127C200.512 341.341 200.919 341.718 200.919 342.143C200.919 342.458 200.7 342.742 200.344 342.957C202.976 353.963 205.305 365.272 207.377 376.841C211.84 349.381 216.89 322.519 223.111 296.954C219.58 302.63 216.062 307.561 212.619 308.654L211.867 282.982L216.653 282.027L211.764 279.475L211.43 268.005C213.007 267.107 214.634 266.293 214.634 266.293L211.338 264.977C210.451 259.156 209.296 253.062 209.158 248C211.115 247.636 213.053 247.214 214.972 246.738C219.753 248.472 223.076 252.014 221.089 254.19L226.737 264.275L227.946 252.977C226.484 249.071 226.472 245.575 228.053 242.536C235.072 239.746 241.711 236.2 247.866 231.998L265.468 248.135C264.992 251.005 261.435 255.802 253.768 257.413L292.503 281.723C292.883 281.658 293.289 281.624 293.708 281.624C295.937 281.624 297.741 282.618 297.741 283.842C297.741 284.176 297.603 284.49 297.361 284.774L332.842 307.039L300.554 243.591C300.193 243.653 299.79 243.691 299.368 243.691ZM252.92 210.098L231.542 188.018C239.121 180.8 244.62 171.294 246.818 160.296C246.953 159.625 247.068 158.953 247.175 158.282C249.762 156.447 252.337 154.932 253.776 154.932C257.406 154.932 260.23 156.95 261.04 158.562C264.67 156.543 275.161 159.368 275.161 159.368C276.029 159.694 276.773 160.204 277.426 160.853C276.163 169.433 273.68 177.607 270.173 185.19C266.42 185.063 260.115 183.72 253.776 182.365C258.557 185.65 263.83 188.966 266.585 192.116C262.801 198.709 258.2 204.749 252.92 210.098ZM161.509 229.849C154.014 226.925 147.023 222.969 140.702 218.141C143.477 214.738 148.02 210.194 153.516 204.964C156.893 205.57 160.197 206.702 163.405 208.59C160.411 206.069 158.028 203.655 156.616 201.422C159.506 198.106 162.058 195.105 163.666 193.079C169.575 197.205 176.421 200.213 183.958 201.721C184.806 201.89 185.65 202.036 186.498 202.166C185.19 210.708 187.273 219.154 191.978 227.528C189.91 228.925 188.494 227.7 187.212 225.939C188.048 228.798 187.703 232.025 186.774 235.44C178.701 234.922 170.926 233.268 163.608 230.636V227.758L161.509 229.849ZM111.423 178.14C113.66 176.548 119.424 170.258 119.424 170.258L111.273 171.563C111.546 165.953 111.784 160.369 112.141 154.813C122.797 153.163 135.691 150.86 140.856 150.806C141.044 159.118 143.208 167.115 146.984 174.238C144.175 177.1 139.624 181.625 138.308 182.25C136.362 183.171 134.751 180.754 134.751 180.754C134.751 180.754 134.432 183.294 134.102 186.233C130.952 191.172 126.988 195.355 121.999 198.586C117.643 192.327 114.071 185.462 111.423 178.14ZM189.2 106.373C191.153 111.987 192.749 118.561 194.065 125.882C196.103 115.99 194.994 111.554 195.424 106.216C197.891 106.315 200.386 106.607 202.888 107.106C208.759 108.28 214.151 110.487 218.901 113.491C219.527 116.266 219.55 119.616 218.272 119.424C218.272 119.424 211.414 121.845 211.008 123.054C210.601 124.263 207.377 131.527 207.377 131.527C207.377 131.527 215.045 128.703 216.656 129.106C218.268 129.509 220.287 129.912 220.287 129.912C218.989 126.673 222.647 122.82 227.474 120.46C232.896 126.067 236.814 132.955 238.771 140.457C232.981 141.132 226.772 141.174 220.287 140.806L214.638 144.436L209.392 146.858C219.941 151.37 228.341 155.592 227.547 158.558C231.323 156.67 234.892 159.701 238.418 163.662C236.062 171.724 231.507 178.674 225.513 184.019C219.914 180.612 210.248 170.377 201.322 161.382C208.226 171.739 215.014 181.993 218.395 189.223C214.715 191.399 210.712 193.072 206.503 194.165C205.843 192.818 205.501 191.498 205.359 190.201C203.939 187.316 203.552 184.629 205.359 182.361C205.359 182.361 200.919 182.361 200.842 180.934C197.696 177.922 195.624 168.251 194.468 162.994L187.611 174.694C186.03 174.46 188.701 191.993 188.002 195.19C187.12 195.063 186.237 194.917 185.355 194.737C179.196 193.505 173.562 191.134 168.643 187.903C169.126 180.938 173.163 168.159 178.735 157.748C171.31 161.306 164.011 164.851 160.983 167.833C159.913 166.666 160.246 165.089 160.983 163.393C157.971 165.703 155.001 167.61 152.107 168.758C149.786 163.719 148.396 158.247 148.113 152.591C151.835 150.442 160.726 147.046 173.086 142.817C165.055 140.15 155.488 137.199 150.818 135.15C153.539 127.863 158.113 121.608 163.903 116.795C167.476 118.63 170.488 121.063 171.068 125.871C175.051 127.03 179.61 130.806 184.384 135.553C179.226 128.116 175.469 121.615 175.105 117.398C171.67 116.976 170.462 115.019 170.197 112.402C175.907 109.105 182.384 107.002 189.2 106.373ZM228.948 68.0757C235.648 71.3029 241.872 75.3821 247.49 80.1827C245.74 82.654 241.699 86.6027 238.246 90.1715L240.264 91.787L233.407 95.0143L225.337 100.663L230.582 105.103L225.521 106.857C219.5 102.555 212.481 99.4235 204.741 97.8731C202.155 97.3551 199.572 97.0366 197.016 96.8946L197.845 80.766L200.528 78.6784L198.164 74.5417L198.912 59.9749C207.803 60.6695 216.315 62.7455 224.247 65.9843C223.89 67.8301 222.489 70.6391 221.104 73.4327L228.948 68.0757ZM264.267 123.054V119.424C267.065 118.622 269.87 117.237 273.469 118.311C275.507 124.186 276.954 130.349 277.729 136.727C274.774 139.701 263.223 142.422 261.85 142.422C260.234 142.422 256.201 140 256.201 140L246.738 139.244C244.788 129.954 240.352 121.385 234.021 114.416C235.494 112.993 237.037 111.557 237.037 111.557L243.491 106.715L247.122 102.275L249.14 100.659L251.964 98.2377C254.934 96.5531 257.943 95.1985 261.051 94.7341C264.793 99.7995 268.012 105.287 270.626 111.12C268.722 112.908 265.775 114.562 262.659 116.193L261.45 114.984L254.593 121.036L264.267 123.054ZM142.802 135.418C136.144 134.95 125.172 133.408 114.7 131.995C115.99 124.793 117.858 117.636 120.656 110.533C123.204 110.598 125.752 110.874 128.3 111.354C126.224 109.949 124.144 108.541 122.068 107.137C124.766 100.981 128.204 94.8685 132.625 88.7977C140.825 95.4633 148.554 103.449 155.737 112.962C149.763 119.098 145.227 126.727 142.802 135.418ZM220.287 230.855L219.078 226.749L218.23 231.549C215.378 232.47 212.466 233.245 209.496 233.859L205.724 201.618C210.77 200.547 215.593 198.762 220.06 196.353L240.778 220.344C234.496 224.723 227.616 228.28 220.287 230.855ZM191.679 59.7216C190.431 71.2914 188.601 83.8973 187.204 96.8332V97.2553C179.572 98.2415 172.334 100.855 165.949 104.792C152.637 92.9497 140.254 81.5872 144.482 74.4726C150.572 70.3205 157.207 66.9398 164.26 64.4685L171.878 77.8726L172.964 61.932C178.984 60.5198 185.247 59.7638 191.679 59.7216Z" fill="black"/>
</svg>
