<svg xmlns="http://www.w3.org/2000/svg" viewBox="0 0 873 912.2" style="enable-background:new 0 0 873 912.2" xml:space="preserve"><path d="M0 275.9c88.3-.1 176.6-.2 264.9-.2 1.8 15.9 7.9 51.2 34 86.2 27.5 36.9 61.8 52.9 76.7 58.8L341.2 737l-87.3-31.7 47.6-99.3c-6.2-3.7-12.7-7.7-19.3-12.2-7-4.7-13.5-9.4-19.5-14-26 24.9-52 49.9-78 74.8l-57.2-62.5 83.4-61.4c-5-6.3-10.1-13-15.2-20.2-6.3-8.8-12-17.5-17.2-25.8-33.2 16.1-66.3 32.1-99.5 48.2l-48.4-93.7c41.2-7.4 82.4-14.8 123.6-22.3-1.5-5.8-2.8-12.3-3.8-19.3s-1.6-13.6-1.8-19.5c-45 .3-90 .5-135 .8L0 275.9zM873 275.9c-88.3-.1-176.6-.2-264.9-.2-1.8 15.9-7.9 51.2-34 86.2-27.5 36.9-61.8 52.9-76.7 58.8L531.8 737l87.3-31.7-47.5-99.3c6.2-3.7 12.7-7.7 19.3-12.2 7-4.7 13.5-9.4 19.5-14 26 24.9 52 49.9 78 74.8l57.2-62.5-83.4-61.4c5-6.3 10.1-13 15.2-20.2 6.3-8.8 12-17.5 17.2-25.8 33.2 16.1 66.3 32.1 99.5 48.2l48.4-93.7c-41.2-7.4-82.4-14.8-123.6-22.3 1.5-5.8 2.8-12.3 3.8-19.3s1.6-13.6 1.8-19.5c45 .3 90 .5 135 .8l13.5-103z"/><path d="m437 0 66.3 109.1-43.7 34.4 12.2 161h25.6l29.2-28.8 47.4 48.7-47.3 47-26.3-26.2-24.3.5 29.4 402.6-68.4 163.9-71.5-163.7 32-403-23-.1-27.1 25.2-48.9-49.1 47-45.8 30 28.8h26.9L415 144l-44.4-34.5z"/></svg>