<svg xmlns="http://www.w3.org/2000/svg" viewBox="0 0 969.8 931.3" style="enable-background:new 0 0 969.8 931.3" xml:space="preserve"><path d="m749.9 395.1 101.7-57.5 20.6 65.9 97.6-261.9-223 .8 24.6 50.8-63.6 46c0-1.4.1-2.9.1-4.3C707.9 105.2 602.8 0 473 0 356.7 0 260.2 84.5 241.5 195.5l-52.6-40.4L227 121 0 81.3l77 325.4 26.1-85.7 100 85.7.4.3C106.8 422.8 33 506.8 33 608c0 112.5 91.2 203.7 203.7 203.7 75.2 0 140.9-40.8 176.2-101.5l5.4 89.4-33.3-6.3 103.8 138 106.4-148.4-33.3 11.9s1.8-58.7 3.8-77.7c36.9 49.4 95.8 81.4 162.2 81.4 111.7 0 202.3-90.6 202.3-202.3 0-104.3-78.9-190.1-180.3-201.1zm-513.3 344c-72.4 0-131.1-58.7-131.1-131.1s58.7-131.1 131.1-131.1 131.2 58.6 131.2 131-58.7 131.2-131.2 131.2zm234.9-345.2c-90 0-162.9-72.9-162.9-162.9S381.5 68.1 471.5 68.1 634.4 141 634.4 231s-72.9 162.9-162.9 162.9zm256.3 343.2c-77.8 0-140.9-63.1-140.9-140.9s63.2-140.9 141-140.9 140.8 63.1 140.8 140.9-63.1 140.9-140.9 140.9z"/><path d="M318.7 542.6c-14.8-43.3-58.7-50.1-77.7-51 0 0-1.6-.1-4.4-.1h-.2c-2.8 0-4.4.1-4.4.1-18.9.9-62.8 7.7-77.6 51-12.7 37 11.3 78.7 6.5 84.3-19.5 22.6 7 58.4 10.6 61.3 6.5 5.3 27.3-5.5 24 .1-2.5 4.2-4.8 36.2-4.8 36.2h6.4l3.1-11.1 5.5-.1 1.1 11.2H218l1.1-10.7 3.7-.5.5 11.2h9.1l.6-11.5h7.4l.4 11.5h9.1l.5-11.2 3.7.5 1.1 10.7h11.2l1.1-11.2 5.5.1 3.1 11.1h6.4s-2.3-32-4.8-36.2c-3.3-5.6 17.5 5.2 24-.1 3.6-3 30.1-38.7 10.6-61.3-4.9-5.7 19.1-47.4 6.4-84.3zm-94.1 107.6c-2.5 2.9-6.2 6.2-11.2 9-12 6.7-23.8 5.8-28.6 5.1-.3 0-.6-.1-.9-.3-10.5-6.6-14.5-17-11.4-23.4.5-1 2.2-4.2 7.7-6.2.3-.1.6-.1 1-.1 6.6.6 14.8 1.9 23.9 4.8 7.4 2.3 13.6 5.1 18.8 7.8 1.3.5 1.6 2.2.7 3.3zm25 39.1c0 .7-1 1-1.4.5-1.1-1.4-2.7-3.1-4.8-4.6-2.2-1.6-4.3-2.6-6-3.2-1.6.6-3.8 1.6-6 3.2-2.1 1.5-3.6 3.2-4.8 4.6-.5.6-1.4.3-1.4-.5-.4-5.5-.1-16.6 8.1-24.8 1.1-1.1 2.4-2 4.1-2.9 1.6.9 3 1.8 4.1 2.9 8.2 8.2 8.5 19.4 8.1 24.8zm40.1-25.2c-.3.2-.6.3-.9.3-4.8.7-16.6 1.6-28.6-5.1-5-2.8-8.6-6.2-11.2-9-1-1.1-.7-2.8.6-3.5 5.1-2.7 11.4-5.5 18.8-7.8 9.1-2.9 17.4-4.2 23.9-4.8.3 0 .6 0 1 .1 5.5 2 7.2 5.3 7.7 6.2 3.1 6.6-.8 17-11.3 23.6zM812.3 528.9c-15.3-44.6-60.4-51.5-79.9-52.4 0 0-1.7-.1-4.5-.1h-.2c-2.9 0-4.5.1-4.5.1-19.5.9-64.6 7.9-79.9 52.4-13 38 11.6 81 6.6 86.8-20.1 23.2 7.2 60.1 10.9 63.1 6.7 5.5 28.1-5.6 24.7.1-2.5 4.4-4.9 37.3-4.9 37.3h6.6l3.2-11.5 5.7-.1 1.1 11.5h11.5l1.1-11 3.8-.5.5 11.5h9.4l.4-11.8h7.6l.4 11.8h9.4l.5-11.5 3.8.5 1.1 11h11.5l1.1-11.5 5.7.1 3.2 11.5h6.6s-2.4-32.9-4.9-37.3c-3.4-5.7 18 5.3 24.7-.1 3.7-3 31-39.8 10.9-63.1-4.9-5.9 19.8-48.8 6.8-86.8zm-96.9 110.8c-2.6 2.9-6.4 6.4-11.5 9.3-12.3 6.9-24.5 6-29.4 5.3-.3 0-.7-.1-.9-.3-10.8-6.8-14.9-17.5-11.7-24.1.5-1 2.3-4.4 7.9-6.4.3-.1.7-.1 1-.1 6.8.6 15.3 2 24.6 4.9 7.6 2.4 14 5.2 19.3 8 1.4.5 1.7 2.2.7 3.4zm25.7 40.2c0 .8-1 1.1-1.5.5-1.2-1.5-2.8-3.2-4.9-4.8-2.3-1.7-4.5-2.7-6.2-3.3-1.7.6-3.9 1.7-6.2 3.3-2.1 1.6-3.7 3.3-4.9 4.8-.5.6-1.4.3-1.5-.5-.4-5.6-.1-17.1 8.3-25.5 1.1-1.1 2.5-2 4.2-2.9 1.6.9 3.1 1.9 4.2 2.9 8.7 8.4 8.9 19.9 8.5 25.5zm41.3-26c-.3.2-.6.3-.9.3-4.9.7-17.1 1.7-29.4-5.3-5.1-2.9-8.9-6.4-11.5-9.3-1-1.1-.7-2.9.7-3.6 5.3-2.8 11.8-5.6 19.3-8 9.4-2.9 17.9-4.3 24.6-4.9.3 0 .7 0 1 .1 5.6 2.1 7.4 5.4 7.9 6.4 3.1 6.8-1 17.5-11.7 24.3zM578.6 140.6C559.2 84.1 502 75.3 477.3 74.1c0 0-2.1-.1-5.7-.1h-.2c-3.6 0-5.7.1-5.7.1-24.7 1.2-81.9 10-101.3 66.5-16.5 48.2 14.8 102.7 8.4 110-25.4 29.4 9.2 76.1 13.8 80 8.5 6.9 35.6-7.1 31.3.1-3.2 5.5-6.2 47.3-6.2 47.3h8.4l4-14.5 7.2-.1 1.4 14.6h14.6l1.4-13.9 4.9-.7.7 14.6h11.9l.6-15h9.6l.6 15h11.9l.7-14.6 4.9.7 1.4 13.9h14.6l1.4-14.6 7.2.1 4 14.5h8.4s-3-41.7-6.2-47.3c-4.3-7.3 22.8 6.8 31.3-.1 4.7-3.9 39.3-50.5 13.8-80-6.6-7.3 24.7-61.8 8.2-110zM455.8 281.1c-3.3 3.7-8.1 8.1-14.6 11.8-15.6 8.8-31.1 7.5-37.3 6.7-.4 0-.8-.2-1.2-.4-13.7-8.7-18.9-22.1-14.8-30.6.6-1.3 2.9-5.5 10.1-8.1.4-.1.8-.2 1.2-.2 8.7.8 19.4 2.5 31.2 6.2 9.6 3 17.8 6.6 24.5 10.1 1.7.9 2.1 3.1.9 4.5zm32.6 51c0 1-1.2 1.3-1.8.6-1.5-1.9-3.5-4-6.2-6-2.9-2.1-5.7-3.5-7.8-4.2-2.1.8-4.9 2.1-7.8 4.2-2.7 2-4.7 4.1-6.2 6-.6.7-1.8.4-1.8-.6-.5-7.1-.1-21.7 10.6-32.3 1.4-1.4 3.2-2.6 5.3-3.7 2.1 1.2 3.9 2.3 5.3 3.7 10.6 10.6 10.9 25.2 10.4 32.3zm52.3-33c-.4.2-.7.4-1.2.4-6.3.9-21.7 2.1-37.3-6.7-6.5-3.6-11.3-8.1-14.6-11.8-1.2-1.4-.9-3.6.8-4.5 6.7-3.5 14.9-7.1 24.5-10.1 11.9-3.7 22.6-5.4 31.2-6.2.4 0 .8 0 1.2.2 7.1 2.6 9.4 6.9 10.1 8.1 4.2 8.5-1 22-14.7 30.6z"/></svg>