<svg xmlns="http://www.w3.org/2000/svg" viewBox="0 0 1000 1000" style="enable-background:new 0 0 1000 1000" xml:space="preserve"><path d="m738.63 368.94 12.79 7.58c-10.2-42.69-20.35-83.67-29.82-105.15l7.84-1.61c-15-35.56-29.4-66.68-42.06-85.27l8.61-2.79c-20.03-35.02-40.26-69.47-65.43-89.65-1.62-3.4 2.5-6.09 10.54-8.3-21.54-21.19-45.23-38.43-71.67-50.58 25.46 39.45 43.36 76.82 54.17 114.05.58-.9 1.3-1.52 2.16-1.8 4.7-1.53 11.84 7.44 15.95 20.04 4.11 12.6 3.62 24.06-1.08 25.59-2.38.77-5.38-1.14-8.29-4.84 7.69 48.61 3.64 98.13-11.16 152.81 42.35-37.31 20.97-2.28 16.22 24.23 11.87-16.74 20.68-18.55 28.75-14.09 0 0 18.12 13.63-6.25 39.06-67.24 40.39-27.89-6.51-27.89-6.51-39.73 7.32-65.15-9.98-85.62-19.13 16.18 14.95 26.2 29.85 25.35 43.79l-9.7-.41C537.62 346.4 518.07 282.04 500 219c-5.39 45.23-11.98 87.35-19.7 126.58 2.17-2.42 4.59-3.67 6.88-3.22 5.15 1.02 7.67 10.19 5.63 20.48s-7.86 17.81-13 16.8c-2.42-.48-4.25-2.77-5.31-6.12-5.43 24.88-11.33 48.53-17.68 71.02L443 448c-3.64-13.48 3.17-30.1 16-48-18.2 13.09-39.61 35.15-80 36 0 0 48 38-26 12-29-20-14-37-14-37 7-6 16-6 31 8-10-25-38-55 11-27-25.53-50.57-39.48-98.25-41.75-147.42-2.11 4.22-4.66 6.7-7.15 6.42-4.92-.55-7.7-11.68-6.22-24.85 1.48-13.17 6.67-23.4 11.58-22.85.9.1 1.73.56 2.48 1.32C343.02 165.99 353.02 125.77 370 82c-23.45 17.24-43.17 38.9-60 64 8.32.54 12.9 2.35 12 6-20.58 24.84-33.44 62.66-46 101l9 1c-8.66 20.76-16.48 54.14-24 92h8c-4.95 22.94-6.62 65.13-8 109l11-10c5.7 57.29 22 127 62 200-22-91 15-122 60-131 16.85 7.33 23.36 20.36 26.53 35.61-7.19 17.15-14.72 33.41-22.58 48.82 1.44-.41 2.81-.39 4.03.14 4.8 2.12 5.35 11.41 1.22 20.76-4.13 9.35-11.36 15.21-16.16 13.09-2.18-.96-3.47-3.42-3.86-6.68C356.82 671.67 327.23 709.25 295 740c41.26-27.71 82.92-51.02 125-69.43-.04-.05-.09-.1-.12-.15-2.81-4.43 1.9-12.46 10.53-17.94 8.63-5.48 17.9-6.32 20.71-1.9 1.24 1.96 1.01 4.62-.37 7.45 16.99-6.42 34.05-12.02 51.18-16.78 16 8.33 26.26 53.19-8.93 33.75 5.31 23.26 5.05 44.01 0 63 4.26 1.36 8.05 3.16 11.38 5.38-36.23 24.87-64.13 33.16-91.38 17.62 11.36 45.64-15.34 99.56-49 155 27.39-31.05 54.69-60.21 81.9-84.94-1.29-.11-2.31-.52-2.94-1.3-3.07-3.77 3.64-14.32 14.99-23.55 11.35-9.24 23.04-13.67 26.11-9.9.56.69.79 1.6.73 2.69 12.09-8.86 24.16-16.62 36.21-23 .62-.25 1.26-.31 1.88-.21.75 5.07 1.03 10.57.87 16.45C503.59 847.26 466.99 906.35 424 967c87.78-88.43 171.61-166.01 244-222-32.6 17.49-62.17 28.93-85.4 29.59-16.3-2.99-25.9-10.79-28.6-23.59 5.43-22 21-31 21-8 21.54-29.06 36.64-30.12 46-7l35-102c-36.37 44.47-69.45 70.42-96 50-20 5-27-15-1-21-23.97-5.99 22.87-31.93 46.9-39.96.06 0 .13-.01.19-.02-2.54-1.49-4.09-3.41-4.09-5.52 0-4.69 7.61-8.5 17-8.5s17 3.81 17 8.5c0 1.59-.89 3.07-2.4 4.34 32.19-.49 64.65 2.16 97.4 8.16-10.8-6.29-21.08-13.32-30.9-20.98.08 2-.43 3.73-1.64 4.94-3.45 3.45-11.16 1.34-17.21-4.71-6.05-6.05-8.16-13.76-4.71-17.21.62-.62 1.37-1.05 2.23-1.32-11.48-10.8-22.28-22.54-32.44-35.1-.17.72-.5 1.34-1 1.8-2.43 2.25-7.9.31-12.22-4.35-4.32-4.65-5.86-10.26-3.43-12.51 1.05-.98 2.68-1.16 4.54-.68-6.82-9.32-13.34-19.04-19.59-29.07-1.39-19.3.41-37.01 18.43-49.69 45.89-.26 88.38 22.64 85.19 116.21 24.45-79.56 26.35-151.13 20.38-208.39zM584.71 571.68c-.49 4.64-6.23 9.52-14.08 11.55-9.04 2.34-17.46.03-18.8-5.16-.21-.81-.21-1.65-.07-2.49C514.54 581.9 477.58 594.59 443 613c32.38-64.66 55.75-139.18 71-215 9.84 26.73 21.49 54.32 35.05 80.88.35-.48.76-.88 1.27-1.17 3.22-1.86 8.4 1.1 11.58 6.6s3.14 11.47-.07 13.33c-.73.42-1.57.59-2.46.54C574.2 524.7 591.04 549.66 610 571c-8.39-.12-16.83.12-25.29.68z"/></svg>