<svg xmlns="http://www.w3.org/2000/svg" viewBox="0 0 856 881" style="enable-background:new 0 0 856 881" xml:space="preserve"><circle cx="53.5" cy="841.5" r="39.5"/><path d="M161 725c-6.9 1.5-48 41-48 41-2.6.6-15 4-25-3-19-13-38.4-5.5-42-5-31.3 4-46 69-46 69 30-30 53-47 83-23 31 21 8 70 8 70 5.7 1.9 15.3-8.2 20-18 7.9-16.6 1-39 1-42 18-25 61-57 69-73 0 0-6-19-20-16z"/><path d="M276 609c-101.6-21.8-89-112-40-138C259 453 896 74 854 0c4 2-451 328-461 326-11 6-6-25-6-25-117 91-221 177-265 209-43.3 31.5-8 98 18 98s46.2-11.5 73 14c21 20-68 86-68 86 29 6 46 23 46 53 0 0 127-143 85-152z"/><path d="M244 710c17.8 7.4 66 7 66 7l-41-45s-37 33-25 38zM270 664s14 24 23 24 29 2 52-5c0-3-58-43-58-43l-17 24zM403 642c-15-2-139.2-54.2-123-38 8 8 14 16 9 27-3 6.7 25 24 52 32 26.8 8 74.9-19.3 62-21z"/><path d="M433 591c-11-3-208-47-213-35-13 19 43.8 45.6 49 44 10-13 89 24 108 16 9.9-4.1 68.8-21.5 56-25zM475 507c-94 28-249-30-261 2-6.6 14.7 0 33 0 33s159 29 205 23c31-4 52-41 56-58z"/><path d="M265 461c-29.8 17.4-30 26-30 26s148 35 225 4c14.1-16.7 29-74 29-74s-186 42-224 44z"/><path d="M484 321c-42 19-67 48-159 98-22.9 15.6-30.2 20.3-29 25 4.4 17.6 139-19 175-35 21-18 13-88 13-88zM349 670s5.4 10.5 3 16c-3.3 7.5-19.3 3.5-21 7-4 8 64 42 117 48 15.9-.1 51-4 51-4s-56-37-116-71c-15 6-34 4-34 4zM422 611c3 3-36 11-36 11s39 15 39 21-29 17-29 17 65 44 115 44 106-64 106-64c-38 9-198-32-195-29z"/><path d="M456.8 557.9c2.6-3.8-36.6 22.2-36.6 22.2s35.2 2.9 36.8 8.9c1.7 6-22 12-22 12s91.1 37.5 146.3 21.9S676 539 676 539c-39.4 20.9-222 23-219.2 18.9zM482 467l-18.6 29.6s22.6 1.9 25.6 7.4-21 35-21 35c-6 12 194-7 194-7 47.6-32 109-129 109-129-33.8 29-287.2 83.1-289 64z"/><path d="M811 251c-40 45-298.3 129.5-321 146-1.9 1.4-9.1 6.6-8 11 1 3.8 7.4 3.4 11 7 8.9 8.8-9.7 31.5-6 42 0 0 143-11 259-57 43.9-43.1 81-143 65-149z"/><path d="M493 379c37 10 278-105 302-123s56-205 56-205-288 241-358 266c0 0 9 42 0 62z"/></svg>