<svg xmlns="http://www.w3.org/2000/svg" viewBox="0 0 1000 1000" style="enable-background:new 0 0 1000 1000" xml:space="preserve"><path d="M957.62 437c-15.18 21.92-40.49 36.29-69.17 36.29-46.44 0-84.09-37.65-84.09-84.09s37.65-84.09 84.09-84.09c11.64 0 22.73 2.37 32.81 6.64-45.63-100.76-126.36-182.23-226.6-228.8a94.207 94.207 0 0 1 6.03 33.24c0 52.17-42.29 94.46-94.46 94.46-52.17 0-94.46-42.29-94.46-94.46 0-29.8 13.81-56.36 35.37-73.67-15.42-1.55-31.07-1.82-46.89-2.35-215.18-7.3-444.63 213.1-444.63 338.66l39.04 15.14 124.53 66.65c.98.45 1.96.9 2.95 1.35a65.894 65.894 0 0 1-7.56-30.72c0-36.58 29.65-66.23 66.23-66.23s66.23 29.65 66.23 66.23c0 26.47-15.53 49.3-37.97 59.91 2.99.6 6.05 1.18 9.17 1.72 47.18 8.22 95.41 9.17 125.73 6.11l-.18-1.5c-.14-6.52-1.48-47.05 29.95-77.18 36.32-34.82 89.42-26.22 94.46-25.34-68.02 34.8-107.82 106.29-100.2 178.54 7.82 74.13 58.75 122.1 87.55 133.21 24.18 13.09 44.92 30.1 44.92 58.01 0 33.08-26.82 59.9-59.9 59.9-31.06 0-56.59-23.64-59.6-53.9-.62.41-1.23.81-1.85 1.21.13 1.05.26 2.1.4 3.16-34.93 5.82-121.3 15.44-218.86-25.34-98.5-41.18-152.54-110.38-172.78-139.38C74.05 764.72 245.15 964 500.26 964c131.68 0 250.49-55.1 334.64-143.51-35.45-4.78-62.79-35.14-62.79-71.89 0-40.08 32.49-72.57 72.57-72.57 28.45 0 53.06 16.38 64.95 40.21 33.55-64.01 52.54-136.86 52.54-214.15 0-22.09-1.55-43.82-4.55-65.09zM227.26 249.82V233.7l55.29-57.59 20.73 36.86-76.02 36.85zm421.59 408.93c-55.35 0-100.22-44.87-100.22-100.22s44.87-100.22 100.22-100.22 100.22 44.87 100.22 100.22-44.87 100.22-100.22 100.22z"/><circle cx="648.85" cy="558.53" r="43.77"/></svg>