<svg xmlns="http://www.w3.org/2000/svg" viewBox="0 0 1000 1000" style="enable-background:new 0 0 1000 1000" xml:space="preserve"><path d="M769.1 423.6v-54.8h-52.4c-1.9-13.1-5.1-25.8-9.6-37.9h39.4v-54.8h-71.3c-12-14.3-26.1-26.7-41.9-36.9l.5-90.9c0-10.5 1.5-33.7 17-55.4 31.5-44.3 90.5-39.9 93.9-39.6V13.7H321.5v39.6c3.4-.3 62.4-4.7 93.9 39.6 15.5 21.8 17 44.9 17 55.4l.5 90.9c-15.8 10.1-29.9 22.6-41.9 36.9h-71.3V331H359c-4.5 12.1-7.7 24.7-9.6 37.9H297v54.8h52.6c2 13.1 5.4 25.8 10 37.9h-39.9v54.8h72.5c12.2 14.2 26.4 26.5 42.3 36.4l.1 24.4c-.8 89-1.5 178-2.3 266.9.5 7.5 1.7 38.4-20.4 64.5-21.3 25.3-56.1 36.4-90.5 29.4v45.2h423.2V938c-34.4 7-69.2-4.2-90.5-29.4-22-26.1-20.9-57-20.4-64.5-.8-89-1.5-178-2.3-266.9l.1-24.4c15.9-10 30.1-22.3 42.3-36.4h72.5v-54.8h-39.9c4.6-12.1 8-24.7 10-37.9h52.7zM533 548.6c-83.6 0-151.4-67.8-151.4-151.4S449.4 245.8 533 245.8s151.4 67.8 151.4 151.4S616.6 548.6 533 548.6z"/><path d="M623.9 326.8c-16.4-48-65-55.5-86-56.4 0 0-1.8-.1-4.8-.1h-.2c-3.1 0-4.8.1-4.8.1-21 1-69.5 8.5-85.9 56.4-14 40.9 12.5 87.2 7.1 93.4-21.6 25 7.8 64.6 11.8 67.9 7.2 5.9 30.2-6.1 26.6.1-2.7 4.7-5.3 40.1-5.3 40.1h7.1l3.4-12.3 6.1-.1 1.2 12.4h12.4l1.2-11.8 4.1-.6.6 12.4h10.1l.5-12.7h8.2l.5 12.7h10.1l.6-12.4 4.1.6 1.2 11.8H566l1.2-12.4 6.1.1 3.4 12.3h7.1s-2.5-35.4-5.3-40.1c-3.6-6.2 19.3 5.7 26.6-.1 4-3.3 33.3-42.9 11.8-67.9-5.5-6.3 21-52.5 7-93.4zM519.7 446c-2.8 3.2-6.9 6.9-12.4 10-13.2 7.5-26.4 6.4-31.7 5.7-.4 0-.7-.2-1-.4-11.6-7.3-16-18.8-12.6-25.9.5-1.1 2.5-4.7 8.6-6.9.4-.1.7-.2 1.1-.2 7.3.7 16.4 2.1 26.5 5.3 8.2 2.5 15.1 5.6 20.8 8.6 1.4.7 1.7 2.6.7 3.8zm27.7 43.3c0 .8-1.1 1.1-1.6.5-1.2-1.6-3-3.4-5.3-5.1-2.5-1.8-4.8-2.9-6.6-3.6-1.8.7-4.2 1.8-6.6 3.6-2.3 1.7-4 3.5-5.3 5.1-.5.6-1.5.3-1.6-.5-.4-6.1-.1-18.4 9-27.4 1.2-1.2 2.7-2.2 4.5-3.2 1.8 1 3.3 2 4.5 3.2 9.1 9 9.4 21.4 9 27.4zm44.4-28c-.3.2-.6.3-1 .4-5.3.7-18.4 1.8-31.7-5.7-5.5-3.1-9.6-6.8-12.4-10-1.1-1.2-.7-3.1.7-3.8 5.7-3 12.7-6.1 20.8-8.6 10.1-3.2 19.2-4.6 26.5-5.3.4 0 .7 0 1.1.2 6.1 2.2 8 5.9 8.6 6.9 3.4 7.1-1 18.6-12.6 25.9z"/></svg>