<svg xmlns="http://www.w3.org/2000/svg" viewBox="0 0 1000 1000" style="enable-background:new 0 0 1000 1000" xml:space="preserve"><path d="M926.5 571c-19.1 0-34.5-18.4-34.5-41s15.4-41 34.5-41c9 0 17.2 4.1 23.3 10.8 1.9 2.1 5.4.8 5.4-2.1-.3-32.2-3.1-62.5-8.3-91.1-.5-2.8-4.4-3.5-5.7-1-4 7.5-10.6 13.3-19 15.8-17.8 5.3-37-6.4-42.8-26.1-5.8-19.7 3.9-40 21.7-45.2 9.6-2.8 19.5-.8 27.6 4.8 2.4 1.7 5.6-.7 4.7-3.5-12-38.2-28.8-72.5-49.7-102.9-2-2.9-6.3-1.9-7 1.5-1.3 6.5-4.4 12.6-9.3 17.5-13.9 13.9-37.2 13.2-51.9-1.6-14.8-14.8-15.5-38.1-1.6-51.9 6.7-6.7 15.5-10 24.6-10 3.5 0 5.2-4.1 2.8-6.6-28.4-28.4-61.3-51.9-98-70.7-3.2-1.7-6.7 1.7-5.3 5 3.7 8.7 4.1 18.3.1 27-8.1 17.6-30.9 24.5-51 15.3s-29.8-31-21.7-48.6c3.6-7.9 10.2-13.7 18.2-16.7 3.3-1.3 3.2-6.1-.2-7.3C625.7 81.8 561.5 72 493.1 72h-.1C233.1 87.9 56.6 304.1 30.4 497.3c-.2 1.4.9 2.7 2.4 2.6 39.7-.9 118.9-2.5 158-7.4 4.3-.5 5.1-6.4 1.1-8.1-15.1-6.5-25-13.3-27.4-21-.5-1.5.7-3 2.3-3 11.9.3 48.9-9.8 67.4-23.3 1.5-1.1 1.2-3.4-.5-4.1-7.4-3-24.1-6.7-20.8-10.1 21.5-4.8 49-10.9 74.9-29 1.6-1.1 1.2-3.7-.8-4.2-17.8-4.5-31.2-9.6-36.3-16.4-1.1-1.5-.2-3.5 1.6-3.7 26.3-2.5 56.5-4.1 79.2-17.8 1.7-1.1 1.4-3.7-.6-4.2-17.4-5.1-32-11.2-30.4-23.8.1-1.1 1-1.9 2.1-2 79.3-8.5 118 20 117.3 84.5 0 1-.6 1.9-1.6 2.2-19.8 6.7-40.1 4.1-63 1.9-1.9-.2-3.2 1.8-2.3 3.5 6.3 11.1 11.3 18.2 14 22.8.5.8.4 1.8-.1 2.6-10.3 14-23.3 9.5-43-1.5-1.5-.8-3.4.2-3.5 1.9-.3 8.9 4 14.6 9 19.9.8.9.9 2.2.1 3.1-10.7 12.6-30.2 11.7-51.4 7.6-3.5-.7-6 3.4-3.7 6.2 5.4 6.6 10.2 11.8 14.1 14.6 1.4 1 1.3 3.2-.3 4-11 5.4-26.9 6.1-43.6 5.6-3.9-.1-5.3 5.1-1.9 6.9 35.5 18.9 91.6 20.7 140.2 14.5.6-.1 1.1-.3 1.4-.8 44.3-49.4 99.4-83.8 163.1-106.5 1.9-.7 2.1-3.3.3-4.3-14.1-7.3-26.2-19.2-35.9-35.1-.9-1.5.2-3.5 2-3.5 128.1-.3 195.3 70.2 200 213.8v.5c-24.8 135.7-127 215.9-248 232.8-140.6 9.8-261.2-53.4-369.4-178.5-1.6-1.9-4.6-.3-4 2.1 27.5 105.7 92.8 198.3 201.3 254.9 1.9 1 4.3-.3 4.5-2.4.3-3.6 1.6-7 4-9.8 7.2-8.6 21.7-8.3 32.2.6 10.6 8.9 13.3 23.1 6 31.6-.2.3-.5.5-.7.8 16.4 6.3 33.5 12 51.6 16.8 2.4.6 4.6-1.7 3.7-4-1.2-3.3-1.6-6.8-1-10.4 2.2-11.7 15-19.2 28.5-16.7s22.7 14.1 20.5 25.9c-.8 4.1-2.8 7.7-5.7 10.5-1.8 1.8-.9 4.8 1.6 5.3 12.1 2.2 24.5 4 37.2 5.5h.2c16 0 31.8-.6 47.4-1.7 2.8-.2 3.9-3.7 1.7-5.5-5.7-4.7-9.3-11.4-9.3-18.8 0-14.4 13.4-26 30-26s30 11.6 30 26c0 5-1.7 9.7-4.5 13.7-1.6 2.2.2 5.3 3 4.9 31.5-4.9 61.7-12.2 90.5-22 2.7-.9 2.8-4.8.1-5.8-6.1-2.3-11.4-6.5-14.8-12.4-8.4-14.6-2.1-34 14-43.3 16.2-9.3 36.1-5.1 44.5 9.5 5.1 8.9 4.8 19.5.1 28.6-1.3 2.6 1.4 5.4 4.1 4.2 35.8-16.7 68.7-37.6 97.9-62.8 2-1.7 1-5.1-1.7-5.4-6.7-.6-13.3-3.3-18.9-7.9-14.7-12.3-16.4-34.3-4-49.1 12.5-14.8 34.5-16.8 49.1-4.5 7.1 6 11.2 14.3 12.1 23 .3 2.7 3.6 3.8 5.4 1.7 20.4-23.8 38.2-50.4 53.1-79.7 1.2-2.4-1.1-5.2-3.7-4.3-7.9 2.6-16.8 2.6-25.4-.5-19.3-7.1-29.6-27.5-22.9-45.6 6.7-18.1 27.7-27.1 47-20 9.8 3.6 17.3 10.7 21.4 19.1 1.2 2.5 4.8 2.3 5.7-.3 10.9-30.9 18.9-64.2 23.8-100-4.1-2.1-1.1-.6-5.1-2.7-5.9 4.5-12.8 7.4-20.4 7.4zM165.8 312.8c-3.9 2.8-8.8-1.7-6.4-5.8 16.4-27.6 46.6-65.5 83.6-88 13.8-2.3 23.7-.9 27 7-13.6 18-64.3 57.9-104.2 86.8z"/></svg>